M48
;Layer_Color=9474304
;FILE_FORMAT=4:3
METRIC,LZ
;TYPE=PLATED
T1F00S00C0.400
T2F00S00C0.500
T3F00S00C0.600
T5F00S00C0.700
T6F00S00C1.000
T7F00S00C1.400
T8F00S00C2.200
%
T01
X0037669Y0087919
X00388Y008745
Y009065
X0037669Y0090181
X00372Y008905
X00404
X0039931Y0087919
Y0090181
X0079169
X00787Y008905
X0079169Y0087919
X00803Y008745
X0081431Y0087919
X00819Y008905
X0081431Y0090181
X00803Y009065
T02
X002645Y008245
X00309Y0082475
X0034175Y008575
Y00872
X0034202Y0090254
X00356Y00908
X003415Y009335
X0031375Y00954
X0031475Y009725
X002655Y00954
X0039175Y0095475
X00435Y009445
X0047525Y0094175
X0047875Y009125
X0049875Y00906
X004775Y00878
X004505Y0087625
Y0081975
X006265Y00809
X00649Y0080875
X006485Y0086825
X0062225Y008725
X0062175Y008595
X0061425Y009025
X0060125Y0090575
X00601Y00891
X00673Y009075
X0067303Y009283
X0074825Y00921
X007505Y008405
X0057475Y009585
T03
X00777Y00943
X007895
X00802
X008145
X00827
X008395
T05
X006597Y0097725
X006724
X006851
X006978
T06
X0037475Y0082
X0041975
X0078376Y0081941
X0082876
T07
X0036225Y00845
X0043225
X0077126Y0084441
X0084126
T08
X00388Y008905
X00803
M30
