G04 Layer_Color=8421504*
%FSLAX43Y43*%
%MOMM*%
G71*
G01*
G75*
G04:AMPARAMS|DCode=11|XSize=0.3mm|YSize=1mm|CornerRadius=0.075mm|HoleSize=0mm|Usage=FLASHONLY|Rotation=270.000|XOffset=0mm|YOffset=0mm|HoleType=Round|Shape=RoundedRectangle|*
%AMROUNDEDRECTD11*
21,1,0.300,0.850,0,0,270.0*
21,1,0.150,1.000,0,0,270.0*
1,1,0.150,-0.425,-0.075*
1,1,0.150,-0.425,0.075*
1,1,0.150,0.425,0.075*
1,1,0.150,0.425,-0.075*
%
%ADD11ROUNDEDRECTD11*%
G04:AMPARAMS|DCode=12|XSize=0.6mm|YSize=1mm|CornerRadius=0.15mm|HoleSize=0mm|Usage=FLASHONLY|Rotation=270.000|XOffset=0mm|YOffset=0mm|HoleType=Round|Shape=RoundedRectangle|*
%AMROUNDEDRECTD12*
21,1,0.600,0.700,0,0,270.0*
21,1,0.300,1.000,0,0,270.0*
1,1,0.300,-0.350,-0.150*
1,1,0.300,-0.350,0.150*
1,1,0.300,0.350,0.150*
1,1,0.300,0.350,-0.150*
%
%ADD12ROUNDEDRECTD12*%
%ADD16O,1.000X2.200*%
%ADD17O,1.500X3.000*%
%ADD18O,1.600X0.300*%
%ADD19O,0.300X1.600*%
%ADD36R,1.200X1.800*%
G36*
X62160Y97927D02*
X62202Y97885D01*
X62225Y97830D01*
Y97800D01*
Y97400D01*
Y97370D01*
X62202Y97315D01*
X62160Y97273D01*
X62105Y97250D01*
X61805D01*
X61677Y97303D01*
X61578Y97402D01*
X61525Y97530D01*
Y97600D01*
Y97670D01*
X61578Y97798D01*
X61677Y97897D01*
X61805Y97950D01*
X62105D01*
X62160Y97927D01*
D02*
G37*
G36*
X60673Y97897D02*
X60772Y97798D01*
X60825Y97670D01*
Y97600D01*
Y97530D01*
X60772Y97402D01*
X60673Y97303D01*
X60545Y97250D01*
X60245D01*
X60190Y97273D01*
X60148Y97315D01*
X60125Y97370D01*
Y97400D01*
Y97800D01*
Y97830D01*
X60148Y97885D01*
X60190Y97927D01*
X60245Y97950D01*
X60545D01*
X60673Y97897D01*
D02*
G37*
G36*
X59160Y97927D02*
X59202Y97885D01*
X59225Y97830D01*
Y97800D01*
Y97400D01*
Y97370D01*
X59202Y97315D01*
X59160Y97273D01*
X59105Y97250D01*
X58805D01*
X58677Y97303D01*
X58578Y97402D01*
X58525Y97530D01*
Y97600D01*
Y97670D01*
X58578Y97798D01*
X58677Y97897D01*
X58805Y97950D01*
X59105D01*
X59160Y97927D01*
D02*
G37*
G36*
X57673Y97897D02*
X57772Y97798D01*
X57825Y97670D01*
Y97600D01*
Y97530D01*
X57772Y97402D01*
X57673Y97303D01*
X57545Y97250D01*
X57245D01*
X57190Y97273D01*
X57148Y97315D01*
X57125Y97370D01*
Y97400D01*
Y97800D01*
Y97830D01*
X57148Y97885D01*
X57190Y97927D01*
X57245Y97950D01*
X57545D01*
X57673Y97897D01*
D02*
G37*
G36*
X50835Y97352D02*
X50877Y97310D01*
X50900Y97255D01*
Y97225D01*
Y96825D01*
Y96795D01*
X50877Y96740D01*
X50835Y96698D01*
X50780Y96675D01*
X50480D01*
X50352Y96728D01*
X50253Y96827D01*
X50200Y96955D01*
Y97025D01*
Y97095D01*
X50253Y97223D01*
X50352Y97322D01*
X50480Y97375D01*
X50780D01*
X50835Y97352D01*
D02*
G37*
G36*
X49348Y97322D02*
X49447Y97223D01*
X49500Y97095D01*
Y97025D01*
Y96955D01*
X49447Y96827D01*
X49348Y96728D01*
X49220Y96675D01*
X48920D01*
X48865Y96698D01*
X48823Y96740D01*
X48800Y96795D01*
Y96825D01*
Y97225D01*
Y97255D01*
X48823Y97310D01*
X48865Y97352D01*
X48920Y97375D01*
X49220D01*
X49348Y97322D01*
D02*
G37*
G36*
X34685Y95727D02*
X34727Y95685D01*
X34750Y95630D01*
Y95600D01*
Y95200D01*
Y95170D01*
X34727Y95115D01*
X34685Y95073D01*
X34630Y95050D01*
X34330D01*
X34202Y95103D01*
X34103Y95202D01*
X34050Y95330D01*
Y95400D01*
Y95470D01*
X34103Y95598D01*
X34202Y95697D01*
X34330Y95750D01*
X34630D01*
X34685Y95727D01*
D02*
G37*
G36*
X33198Y95697D02*
X33297Y95598D01*
X33350Y95470D01*
Y95400D01*
Y95330D01*
X33297Y95202D01*
X33198Y95103D01*
X33070Y95050D01*
X32770D01*
X32715Y95073D01*
X32673Y95115D01*
X32650Y95170D01*
Y95200D01*
Y95600D01*
Y95630D01*
X32673Y95685D01*
X32715Y95727D01*
X32770Y95750D01*
X33070D01*
X33198Y95697D01*
D02*
G37*
G36*
X29735Y95727D02*
X29777Y95685D01*
X29800Y95630D01*
Y95600D01*
Y95200D01*
Y95170D01*
X29777Y95115D01*
X29735Y95073D01*
X29680Y95050D01*
X29380D01*
X29252Y95103D01*
X29153Y95202D01*
X29100Y95330D01*
Y95400D01*
Y95470D01*
X29153Y95598D01*
X29252Y95697D01*
X29380Y95750D01*
X29680D01*
X29735Y95727D01*
D02*
G37*
G36*
X28248Y95697D02*
X28347Y95598D01*
X28400Y95470D01*
Y95400D01*
Y95330D01*
X28347Y95202D01*
X28248Y95103D01*
X28120Y95050D01*
X27820D01*
X27765Y95073D01*
X27723Y95115D01*
X27700Y95170D01*
Y95200D01*
Y95600D01*
Y95630D01*
X27723Y95685D01*
X27765Y95727D01*
X27820Y95750D01*
X28120D01*
X28248Y95697D01*
D02*
G37*
G36*
X37960Y95727D02*
X38002Y95685D01*
X38025Y95630D01*
Y95600D01*
Y95200D01*
Y95170D01*
X38002Y95115D01*
X37960Y95073D01*
X37905Y95050D01*
X37605D01*
X37477Y95103D01*
X37378Y95202D01*
X37325Y95330D01*
Y95400D01*
Y95470D01*
X37378Y95598D01*
X37477Y95697D01*
X37605Y95750D01*
X37905D01*
X37960Y95727D01*
D02*
G37*
G36*
X36373Y95697D02*
X36472Y95598D01*
X36525Y95470D01*
Y95400D01*
Y95330D01*
X36472Y95202D01*
X36373Y95103D01*
X36245Y95050D01*
X35945D01*
X35890Y95073D01*
X35848Y95115D01*
X35825Y95170D01*
Y95200D01*
Y95600D01*
Y95630D01*
X35848Y95685D01*
X35890Y95727D01*
X35945Y95750D01*
X36245D01*
X36373Y95697D01*
D02*
G37*
G36*
X73485Y94177D02*
X73527Y94135D01*
X73550Y94080D01*
Y94050D01*
Y93650D01*
Y93620D01*
X73527Y93565D01*
X73485Y93523D01*
X73430Y93500D01*
X73130D01*
X73002Y93553D01*
X72903Y93652D01*
X72850Y93780D01*
Y93850D01*
Y93920D01*
X72903Y94048D01*
X73002Y94147D01*
X73130Y94200D01*
X73430D01*
X73485Y94177D01*
D02*
G37*
G36*
X71998Y94147D02*
X72097Y94048D01*
X72150Y93920D01*
Y93850D01*
Y93780D01*
X72097Y93652D01*
X71998Y93553D01*
X71870Y93500D01*
X71570D01*
X71515Y93523D01*
X71473Y93565D01*
X71450Y93620D01*
Y93650D01*
Y94050D01*
Y94080D01*
X71473Y94135D01*
X71515Y94177D01*
X71570Y94200D01*
X71870D01*
X71998Y94147D01*
D02*
G37*
G36*
X40535Y94177D02*
X40577Y94135D01*
X40600Y94080D01*
Y94050D01*
Y93850D01*
Y93780D01*
X40547Y93652D01*
X40448Y93553D01*
X40320Y93500D01*
X40180D01*
X40052Y93553D01*
X39953Y93652D01*
X39900Y93780D01*
Y93850D01*
Y94050D01*
Y94080D01*
X39923Y94135D01*
X39965Y94177D01*
X40020Y94200D01*
X40480D01*
X40535Y94177D01*
D02*
G37*
G36*
X38860Y94152D02*
X38902Y94110D01*
X38925Y94055D01*
Y94025D01*
Y93825D01*
Y93755D01*
X38872Y93627D01*
X38773Y93528D01*
X38645Y93475D01*
X38505D01*
X38377Y93528D01*
X38278Y93627D01*
X38225Y93755D01*
Y93825D01*
Y94025D01*
Y94055D01*
X38248Y94110D01*
X38290Y94152D01*
X38345Y94175D01*
X38805D01*
X38860Y94152D01*
D02*
G37*
G36*
X50160Y93502D02*
X50202Y93460D01*
X50225Y93405D01*
Y93375D01*
Y93175D01*
Y93105D01*
X50172Y92977D01*
X50073Y92878D01*
X49945Y92825D01*
X49805D01*
X49677Y92878D01*
X49578Y92977D01*
X49525Y93105D01*
Y93175D01*
Y93375D01*
Y93405D01*
X49548Y93460D01*
X49590Y93502D01*
X49645Y93525D01*
X50105D01*
X50160Y93502D01*
D02*
G37*
G36*
X40448Y92747D02*
X40547Y92648D01*
X40600Y92520D01*
Y92450D01*
Y92250D01*
Y92220D01*
X40577Y92165D01*
X40535Y92123D01*
X40480Y92100D01*
X40020D01*
X39965Y92123D01*
X39923Y92165D01*
X39900Y92220D01*
Y92250D01*
Y92450D01*
Y92520D01*
X39953Y92648D01*
X40052Y92747D01*
X40180Y92800D01*
X40320D01*
X40448Y92747D01*
D02*
G37*
G36*
X38773Y92722D02*
X38872Y92623D01*
X38925Y92495D01*
Y92425D01*
Y92225D01*
Y92195D01*
X38902Y92140D01*
X38860Y92098D01*
X38805Y92075D01*
X38345D01*
X38290Y92098D01*
X38248Y92140D01*
X38225Y92195D01*
Y92225D01*
Y92425D01*
Y92495D01*
X38278Y92623D01*
X38377Y92722D01*
X38505Y92775D01*
X38645D01*
X38773Y92722D01*
D02*
G37*
G36*
X73485Y92427D02*
X73527Y92385D01*
X73550Y92330D01*
Y92300D01*
Y91900D01*
Y91870D01*
X73527Y91815D01*
X73485Y91773D01*
X73430Y91750D01*
X73130D01*
X73002Y91803D01*
X72903Y91902D01*
X72850Y92030D01*
Y92100D01*
Y92170D01*
X72903Y92298D01*
X73002Y92397D01*
X73130Y92450D01*
X73430D01*
X73485Y92427D01*
D02*
G37*
G36*
X71998Y92397D02*
X72097Y92298D01*
X72150Y92170D01*
Y92100D01*
Y92030D01*
X72097Y91902D01*
X71998Y91803D01*
X71870Y91750D01*
X71570D01*
X71515Y91773D01*
X71473Y91815D01*
X71450Y91870D01*
Y91900D01*
Y92300D01*
Y92330D01*
X71473Y92385D01*
X71515Y92427D01*
X71570Y92450D01*
X71870D01*
X71998Y92397D01*
D02*
G37*
G36*
X50073Y92072D02*
X50172Y91973D01*
X50225Y91845D01*
Y91775D01*
Y91575D01*
Y91545D01*
X50202Y91490D01*
X50160Y91448D01*
X50105Y91425D01*
X49645D01*
X49590Y91448D01*
X49548Y91490D01*
X49525Y91545D01*
Y91575D01*
Y91775D01*
Y91845D01*
X49578Y91973D01*
X49677Y92072D01*
X49805Y92125D01*
X49945D01*
X50073Y92072D01*
D02*
G37*
G36*
X50169Y89955D02*
X50211Y89913D01*
X50234Y89858D01*
Y89828D01*
Y89628D01*
Y89558D01*
X50181Y89430D01*
X50082Y89331D01*
X49954Y89278D01*
X49814D01*
X49686Y89331D01*
X49587Y89430D01*
X49534Y89558D01*
Y89628D01*
Y89828D01*
Y89858D01*
X49557Y89913D01*
X49599Y89955D01*
X49654Y89978D01*
X50114D01*
X50169Y89955D01*
D02*
G37*
G36*
X45335Y89302D02*
X45377Y89260D01*
X45400Y89205D01*
Y89175D01*
Y88775D01*
Y88745D01*
X45377Y88690D01*
X45335Y88648D01*
X45280Y88625D01*
X44980D01*
X44852Y88678D01*
X44753Y88777D01*
X44700Y88905D01*
Y88975D01*
Y89045D01*
X44753Y89173D01*
X44852Y89272D01*
X44980Y89325D01*
X45280D01*
X45335Y89302D01*
D02*
G37*
G36*
X43848Y89272D02*
X43947Y89173D01*
X44000Y89045D01*
Y88975D01*
Y88905D01*
X43947Y88777D01*
X43848Y88678D01*
X43720Y88625D01*
X43420D01*
X43365Y88648D01*
X43323Y88690D01*
X43300Y88745D01*
Y88775D01*
Y89175D01*
Y89205D01*
X43323Y89260D01*
X43365Y89302D01*
X43420Y89325D01*
X43720D01*
X43848Y89272D01*
D02*
G37*
G36*
X50082Y88525D02*
X50181Y88426D01*
X50234Y88298D01*
Y88228D01*
Y88028D01*
Y87998D01*
X50211Y87943D01*
X50169Y87901D01*
X50114Y87878D01*
X49654D01*
X49599Y87901D01*
X49557Y87943D01*
X49534Y87998D01*
Y88028D01*
Y88228D01*
Y88298D01*
X49587Y88426D01*
X49686Y88525D01*
X49814Y88578D01*
X49954D01*
X50082Y88525D01*
D02*
G37*
G36*
X50835Y86152D02*
X50877Y86110D01*
X50900Y86055D01*
Y86025D01*
Y85625D01*
Y85595D01*
X50877Y85540D01*
X50835Y85498D01*
X50780Y85475D01*
X50480D01*
X50352Y85528D01*
X50253Y85627D01*
X50200Y85755D01*
Y85825D01*
Y85895D01*
X50253Y86023D01*
X50352Y86122D01*
X50480Y86175D01*
X50780D01*
X50835Y86152D01*
D02*
G37*
G36*
X49348Y86122D02*
X49447Y86023D01*
X49500Y85895D01*
Y85825D01*
Y85755D01*
X49447Y85627D01*
X49348Y85528D01*
X49220Y85475D01*
X48920D01*
X48865Y85498D01*
X48823Y85540D01*
X48800Y85595D01*
Y85625D01*
Y86025D01*
Y86055D01*
X48823Y86110D01*
X48865Y86152D01*
X48920Y86175D01*
X49220D01*
X49348Y86122D01*
D02*
G37*
G36*
X34760Y82777D02*
X34802Y82735D01*
X34825Y82680D01*
Y82650D01*
Y82250D01*
Y82220D01*
X34802Y82165D01*
X34760Y82123D01*
X34705Y82100D01*
X34405D01*
X34277Y82153D01*
X34178Y82252D01*
X34125Y82380D01*
Y82450D01*
Y82520D01*
X34178Y82648D01*
X34277Y82747D01*
X34405Y82800D01*
X34705D01*
X34760Y82777D01*
D02*
G37*
G36*
X33273Y82747D02*
X33372Y82648D01*
X33425Y82520D01*
Y82450D01*
Y82380D01*
X33372Y82252D01*
X33273Y82153D01*
X33145Y82100D01*
X32845D01*
X32790Y82123D01*
X32748Y82165D01*
X32725Y82220D01*
Y82250D01*
Y82650D01*
Y82680D01*
X32748Y82735D01*
X32790Y82777D01*
X32845Y82800D01*
X33145D01*
X33273Y82747D01*
D02*
G37*
G36*
X29735Y82777D02*
X29777Y82735D01*
X29800Y82680D01*
Y82650D01*
Y82250D01*
Y82220D01*
X29777Y82165D01*
X29735Y82123D01*
X29680Y82100D01*
X29380D01*
X29252Y82153D01*
X29153Y82252D01*
X29100Y82380D01*
Y82450D01*
Y82520D01*
X29153Y82648D01*
X29252Y82747D01*
X29380Y82800D01*
X29680D01*
X29735Y82777D01*
D02*
G37*
G36*
X28248Y82747D02*
X28347Y82648D01*
X28400Y82520D01*
Y82450D01*
Y82380D01*
X28347Y82252D01*
X28248Y82153D01*
X28120Y82100D01*
X27820D01*
X27765Y82123D01*
X27723Y82165D01*
X27700Y82220D01*
Y82250D01*
Y82650D01*
Y82680D01*
X27723Y82735D01*
X27765Y82777D01*
X27820Y82800D01*
X28120D01*
X28248Y82747D01*
D02*
G37*
G36*
X75335Y82627D02*
X75377Y82585D01*
X75400Y82530D01*
Y82500D01*
Y82300D01*
Y82230D01*
X75347Y82102D01*
X75248Y82003D01*
X75120Y81950D01*
X74980D01*
X74852Y82003D01*
X74753Y82102D01*
X74700Y82230D01*
Y82300D01*
Y82500D01*
Y82530D01*
X74723Y82585D01*
X74765Y82627D01*
X74820Y82650D01*
X75280D01*
X75335Y82627D01*
D02*
G37*
G36*
X68660D02*
X68702Y82585D01*
X68725Y82530D01*
Y82500D01*
Y82300D01*
Y82230D01*
X68672Y82102D01*
X68573Y82003D01*
X68445Y81950D01*
X68305D01*
X68177Y82003D01*
X68078Y82102D01*
X68025Y82230D01*
Y82300D01*
Y82500D01*
Y82530D01*
X68048Y82585D01*
X68090Y82627D01*
X68145Y82650D01*
X68605D01*
X68660Y82627D01*
D02*
G37*
G36*
X66860D02*
X66902Y82585D01*
X66925Y82530D01*
Y82500D01*
Y82300D01*
Y82230D01*
X66872Y82102D01*
X66773Y82003D01*
X66645Y81950D01*
X66505D01*
X66377Y82003D01*
X66278Y82102D01*
X66225Y82230D01*
Y82300D01*
Y82500D01*
Y82530D01*
X66248Y82585D01*
X66290Y82627D01*
X66345Y82650D01*
X66805D01*
X66860Y82627D01*
D02*
G37*
G36*
X60910D02*
X60952Y82585D01*
X60975Y82530D01*
Y82500D01*
Y82300D01*
Y82230D01*
X60922Y82102D01*
X60823Y82003D01*
X60695Y81950D01*
X60555D01*
X60427Y82003D01*
X60328Y82102D01*
X60275Y82230D01*
Y82300D01*
Y82500D01*
Y82530D01*
X60298Y82585D01*
X60340Y82627D01*
X60395Y82650D01*
X60855D01*
X60910Y82627D01*
D02*
G37*
G36*
X75248Y81197D02*
X75347Y81098D01*
X75400Y80970D01*
Y80900D01*
Y80700D01*
Y80670D01*
X75377Y80615D01*
X75335Y80573D01*
X75280Y80550D01*
X74820D01*
X74765Y80573D01*
X74723Y80615D01*
X74700Y80670D01*
Y80700D01*
Y80900D01*
Y80970D01*
X74753Y81098D01*
X74852Y81197D01*
X74980Y81250D01*
X75120D01*
X75248Y81197D01*
D02*
G37*
G36*
X68573D02*
X68672Y81098D01*
X68725Y80970D01*
Y80900D01*
Y80700D01*
Y80670D01*
X68702Y80615D01*
X68660Y80573D01*
X68605Y80550D01*
X68145D01*
X68090Y80573D01*
X68048Y80615D01*
X68025Y80670D01*
Y80700D01*
Y80900D01*
Y80970D01*
X68078Y81098D01*
X68177Y81197D01*
X68305Y81250D01*
X68445D01*
X68573Y81197D01*
D02*
G37*
G36*
X66773D02*
X66872Y81098D01*
X66925Y80970D01*
Y80900D01*
Y80700D01*
Y80670D01*
X66902Y80615D01*
X66860Y80573D01*
X66805Y80550D01*
X66345D01*
X66290Y80573D01*
X66248Y80615D01*
X66225Y80670D01*
Y80700D01*
Y80900D01*
Y80970D01*
X66278Y81098D01*
X66377Y81197D01*
X66505Y81250D01*
X66645D01*
X66773Y81197D01*
D02*
G37*
G36*
X60823D02*
X60922Y81098D01*
X60975Y80970D01*
Y80900D01*
Y80700D01*
Y80670D01*
X60952Y80615D01*
X60910Y80573D01*
X60855Y80550D01*
X60395D01*
X60340Y80573D01*
X60298Y80615D01*
X60275Y80670D01*
Y80700D01*
Y80900D01*
Y80970D01*
X60328Y81098D01*
X60427Y81197D01*
X60555Y81250D01*
X60695D01*
X60823Y81197D01*
D02*
G37*
D11*
X32825Y90700D02*
D03*
Y90200D02*
D03*
Y89700D02*
D03*
Y87200D02*
D03*
Y87700D02*
D03*
Y88200D02*
D03*
Y89200D02*
D03*
Y88700D02*
D03*
D12*
Y86550D02*
D03*
Y91350D02*
D03*
Y85750D02*
D03*
Y92150D02*
D03*
D16*
X42375Y97450D02*
D03*
X44675D02*
D03*
X46975D02*
D03*
D17*
X53875Y97025D02*
D03*
Y85825D02*
D03*
D18*
X57625Y93550D02*
D03*
Y93050D02*
D03*
Y92550D02*
D03*
Y92050D02*
D03*
Y91550D02*
D03*
Y91050D02*
D03*
Y90550D02*
D03*
Y90050D02*
D03*
Y89550D02*
D03*
Y89050D02*
D03*
Y88550D02*
D03*
Y88050D02*
D03*
Y87550D02*
D03*
Y87050D02*
D03*
Y86550D02*
D03*
Y86050D02*
D03*
X69025D02*
D03*
Y86550D02*
D03*
Y87050D02*
D03*
Y87550D02*
D03*
Y88050D02*
D03*
Y88550D02*
D03*
Y89050D02*
D03*
Y89550D02*
D03*
Y90050D02*
D03*
Y90550D02*
D03*
Y91050D02*
D03*
Y91550D02*
D03*
Y92050D02*
D03*
Y92550D02*
D03*
Y93050D02*
D03*
Y93550D02*
D03*
D19*
X59575Y84100D02*
D03*
X60075D02*
D03*
X60575D02*
D03*
X61075D02*
D03*
X61575D02*
D03*
X62075D02*
D03*
X62575D02*
D03*
X63075D02*
D03*
X63575D02*
D03*
X64075D02*
D03*
X64575D02*
D03*
X65075D02*
D03*
X65575D02*
D03*
X66075D02*
D03*
X66575D02*
D03*
X67075D02*
D03*
Y95500D02*
D03*
X66575D02*
D03*
X66075D02*
D03*
X65575D02*
D03*
X65075D02*
D03*
X64575D02*
D03*
X64075D02*
D03*
X63575D02*
D03*
X63075D02*
D03*
X62575D02*
D03*
X62075D02*
D03*
X61575D02*
D03*
X61075D02*
D03*
X60575D02*
D03*
X60075D02*
D03*
X59575D02*
D03*
D36*
X43875Y91250D02*
D03*
X45475D02*
D03*
M02*
