G04 Layer_Color=8388736*
%FSLAX43Y43*%
%MOMM*%
G71*
G01*
G75*
G04:AMPARAMS|DCode=37|XSize=0.95mm|YSize=0.95mm|CornerRadius=0.275mm|HoleSize=0mm|Usage=FLASHONLY|Rotation=90.000|XOffset=0mm|YOffset=0mm|HoleType=Round|Shape=RoundedRectangle|*
%AMROUNDEDRECTD37*
21,1,0.950,0.400,0,0,90.0*
21,1,0.400,0.950,0,0,90.0*
1,1,0.550,0.200,0.200*
1,1,0.550,0.200,-0.200*
1,1,0.550,-0.200,-0.200*
1,1,0.550,-0.200,0.200*
%
%ADD37ROUNDEDRECTD37*%
G04:AMPARAMS|DCode=38|XSize=0.45mm|YSize=1.15mm|CornerRadius=0.15mm|HoleSize=0mm|Usage=FLASHONLY|Rotation=270.000|XOffset=0mm|YOffset=0mm|HoleType=Round|Shape=RoundedRectangle|*
%AMROUNDEDRECTD38*
21,1,0.450,0.850,0,0,270.0*
21,1,0.150,1.150,0,0,270.0*
1,1,0.300,-0.425,-0.075*
1,1,0.300,-0.425,0.075*
1,1,0.300,0.425,0.075*
1,1,0.300,0.425,-0.075*
%
%ADD38ROUNDEDRECTD38*%
G04:AMPARAMS|DCode=39|XSize=0.75mm|YSize=1.15mm|CornerRadius=0.225mm|HoleSize=0mm|Usage=FLASHONLY|Rotation=270.000|XOffset=0mm|YOffset=0mm|HoleType=Round|Shape=RoundedRectangle|*
%AMROUNDEDRECTD39*
21,1,0.750,0.700,0,0,270.0*
21,1,0.300,1.150,0,0,270.0*
1,1,0.450,-0.350,-0.150*
1,1,0.450,-0.350,0.150*
1,1,0.450,0.350,0.150*
1,1,0.450,0.350,-0.150*
%
%ADD39ROUNDEDRECTD39*%
G04:AMPARAMS|DCode=40|XSize=0.95mm|YSize=0.95mm|CornerRadius=0.275mm|HoleSize=0mm|Usage=FLASHONLY|Rotation=180.000|XOffset=0mm|YOffset=0mm|HoleType=Round|Shape=RoundedRectangle|*
%AMROUNDEDRECTD40*
21,1,0.950,0.400,0,0,180.0*
21,1,0.400,0.950,0,0,180.0*
1,1,0.550,-0.200,0.200*
1,1,0.550,0.200,0.200*
1,1,0.550,0.200,-0.200*
1,1,0.550,-0.200,-0.200*
%
%ADD40ROUNDEDRECTD40*%
%ADD41R,0.950X0.950*%
%ADD42R,3.800X2.800*%
%ADD43O,1.600X2.800*%
%ADD44O,2.100X3.600*%
%ADD45O,1.700X0.400*%
%ADD46O,0.400X1.700*%
%ADD47C,1.300*%
%ADD48O,2.600X1.600*%
%ADD49O,2.400X1.600*%
%ADD50C,4.200*%
%ADD51O,1.800X2.400*%
%ADD52O,2.200X2.600*%
G04:AMPARAMS|DCode=53|XSize=1.5mm|YSize=2.2mm|CornerRadius=0mm|HoleSize=0mm|Usage=FLASHONLY|Rotation=0.000|XOffset=0mm|YOffset=0mm|HoleType=Round|Shape=Octagon|*
%AMOCTAGOND53*
4,1,8,-0.375,1.100,0.375,1.100,0.750,0.725,0.750,-0.725,0.375,-1.100,-0.375,-1.100,-0.750,-0.725,-0.750,0.725,-0.375,1.100,0.0*
%
%ADD53OCTAGOND53*%

%ADD54O,1.500X2.200*%
%ADD55C,1.100*%
%ADD56C,1.200*%
%ADD57C,1.600*%
D37*
X34400Y95400D02*
D03*
X33000D02*
D03*
X29450Y82450D02*
D03*
X28050D02*
D03*
X29450Y95400D02*
D03*
X28050D02*
D03*
X34475Y82450D02*
D03*
X33075D02*
D03*
X43650Y88975D02*
D03*
X45050D02*
D03*
X49150Y85825D02*
D03*
X50550D02*
D03*
X49150Y97025D02*
D03*
X50550D02*
D03*
X57475Y97600D02*
D03*
X58875D02*
D03*
X73200Y92100D02*
D03*
X71800D02*
D03*
X73200Y93850D02*
D03*
X71800D02*
D03*
X61875Y97600D02*
D03*
X60475D02*
D03*
D38*
X32825Y90700D02*
D03*
Y90200D02*
D03*
Y89700D02*
D03*
Y87200D02*
D03*
Y87700D02*
D03*
Y88200D02*
D03*
Y89200D02*
D03*
Y88700D02*
D03*
D39*
Y86550D02*
D03*
Y91350D02*
D03*
Y85750D02*
D03*
Y92150D02*
D03*
D40*
X36125Y95400D02*
D03*
X38575Y92425D02*
D03*
Y93825D02*
D03*
X40250Y92450D02*
D03*
Y93850D02*
D03*
X49875Y93175D02*
D03*
Y91775D02*
D03*
X49884Y88228D02*
D03*
Y89628D02*
D03*
X75050Y80900D02*
D03*
Y82300D02*
D03*
X60625Y80900D02*
D03*
Y82300D02*
D03*
X66575Y80900D02*
D03*
Y82300D02*
D03*
X68375Y80900D02*
D03*
Y82300D02*
D03*
D41*
X37725Y95400D02*
D03*
D42*
X44675Y91250D02*
D03*
D43*
X42375Y97450D02*
D03*
X44675D02*
D03*
X46975D02*
D03*
D44*
X53875Y97025D02*
D03*
Y85825D02*
D03*
D45*
X57625Y93550D02*
D03*
Y93050D02*
D03*
Y92550D02*
D03*
Y92050D02*
D03*
Y91550D02*
D03*
Y91050D02*
D03*
Y90550D02*
D03*
Y90050D02*
D03*
Y89550D02*
D03*
Y89050D02*
D03*
Y88550D02*
D03*
Y88050D02*
D03*
Y87550D02*
D03*
Y87050D02*
D03*
Y86550D02*
D03*
Y86050D02*
D03*
X69025D02*
D03*
Y86550D02*
D03*
Y87050D02*
D03*
Y87550D02*
D03*
Y88050D02*
D03*
Y88550D02*
D03*
Y89050D02*
D03*
Y89550D02*
D03*
Y90050D02*
D03*
Y90550D02*
D03*
Y91050D02*
D03*
Y91550D02*
D03*
Y92050D02*
D03*
Y92550D02*
D03*
Y93050D02*
D03*
Y93550D02*
D03*
D46*
X59575Y84100D02*
D03*
X60075D02*
D03*
X60575D02*
D03*
X61075D02*
D03*
X61575D02*
D03*
X62075D02*
D03*
X62575D02*
D03*
X63075D02*
D03*
X63575D02*
D03*
X64075D02*
D03*
X64575D02*
D03*
X65075D02*
D03*
X65575D02*
D03*
X66075D02*
D03*
X66575D02*
D03*
X67075D02*
D03*
Y95500D02*
D03*
X66575D02*
D03*
X66075D02*
D03*
X65575D02*
D03*
X65075D02*
D03*
X64575D02*
D03*
X64075D02*
D03*
X63575D02*
D03*
X63075D02*
D03*
X62575D02*
D03*
X62075D02*
D03*
X61575D02*
D03*
X61075D02*
D03*
X60575D02*
D03*
X60075D02*
D03*
X59575D02*
D03*
D47*
X31705Y91840D02*
D03*
Y86060D02*
D03*
D48*
X32205Y84650D02*
D03*
Y93250D02*
D03*
D49*
X28025Y84650D02*
D03*
Y93250D02*
D03*
D50*
X38800Y89050D02*
D03*
X80300D02*
D03*
D51*
X41975Y82000D02*
D03*
X37475D02*
D03*
X82876Y81941D02*
D03*
X78376D02*
D03*
D52*
X36225Y84500D02*
D03*
X43225D02*
D03*
X77126Y84441D02*
D03*
X84126D02*
D03*
D53*
X77700Y94300D02*
D03*
D54*
X78950D02*
D03*
X80200D02*
D03*
X81450D02*
D03*
X82700D02*
D03*
X83950D02*
D03*
D55*
X67240Y97725D02*
D03*
X68510D02*
D03*
X69780D02*
D03*
X65970D02*
D03*
D56*
X38800Y87450D02*
D03*
Y90650D02*
D03*
X37669Y90181D02*
D03*
X39931Y87919D02*
D03*
X37200Y89050D02*
D03*
X40400D02*
D03*
X37669Y87919D02*
D03*
X39931Y90181D02*
D03*
X80300Y87450D02*
D03*
Y90650D02*
D03*
X79169Y90181D02*
D03*
X81431Y87919D02*
D03*
X78700Y89050D02*
D03*
X81900D02*
D03*
X79169Y87919D02*
D03*
X81431Y90181D02*
D03*
D57*
X34202Y90254D02*
D03*
X31375Y95400D02*
D03*
X34175Y87200D02*
D03*
X30900Y82475D02*
D03*
X26450Y82450D02*
D03*
X34175Y85750D02*
D03*
X34150Y93350D02*
D03*
X26550Y95400D02*
D03*
X31475Y97250D02*
D03*
X35600Y90800D02*
D03*
X43500Y94450D02*
D03*
X39175Y95475D02*
D03*
X47525Y94175D02*
D03*
X47750Y87800D02*
D03*
X60125Y90575D02*
D03*
X49875Y90600D02*
D03*
X67303Y92830D02*
D03*
X67300Y90750D02*
D03*
X62650Y80900D02*
D03*
X64900Y80875D02*
D03*
X75050Y84050D02*
D03*
X74825Y92100D02*
D03*
X57475Y95850D02*
D03*
X45050Y81975D02*
D03*
Y87625D02*
D03*
X60100Y89100D02*
D03*
X64850Y86825D02*
D03*
X62225Y87250D02*
D03*
X62175Y85950D02*
D03*
X47875Y91250D02*
D03*
X61425Y90250D02*
D03*
M02*
