G04 Layer_Physical_Order=2*
G04 Layer_Color=16711680*
%FSLAX43Y43*%
%MOMM*%
G71*
G01*
G75*
%ADD20C,0.300*%
%ADD21C,0.200*%
%ADD22C,0.700*%
%ADD23O,2.000X1.000*%
%ADD24O,1.800X1.000*%
%ADD25C,4.000*%
%ADD26O,1.600X2.200*%
%ADD27O,2.000X2.400*%
G04:AMPARAMS|DCode=28|XSize=0.9mm|YSize=1.6mm|CornerRadius=0mm|HoleSize=0mm|Usage=FLASHONLY|Rotation=0.000|XOffset=0mm|YOffset=0mm|HoleType=Round|Shape=Octagon|*
%AMOCTAGOND28*
4,1,8,-0.225,0.800,0.225,0.800,0.450,0.575,0.450,-0.575,0.225,-0.800,-0.225,-0.800,-0.450,-0.575,-0.450,0.575,-0.225,0.800,0.0*
%
%ADD28OCTAGOND28*%

%ADD29O,0.900X1.600*%
%ADD30C,1.000*%
%ADD31C,0.600*%
%ADD32O,1.000X1.400*%
G36*
X85319Y85228D02*
X85192Y85203D01*
X85174Y85246D01*
X84982Y85497D01*
X84731Y85689D01*
X84439Y85810D01*
X84126Y85851D01*
X83813Y85810D01*
X83521Y85689D01*
X83270Y85497D01*
X83078Y85246D01*
X82957Y84954D01*
X82916Y84641D01*
Y84241D01*
X82957Y83928D01*
X83078Y83636D01*
X83270Y83385D01*
X83521Y83193D01*
X83813Y83072D01*
X84126Y83031D01*
X84439Y83072D01*
X84731Y83193D01*
X84982Y83385D01*
X85174Y83636D01*
X85192Y83679D01*
X85319Y83654D01*
Y79556D01*
X25806D01*
Y81862D01*
X25933Y81896D01*
X26070Y81791D01*
X26253Y81715D01*
X26323Y81706D01*
Y82450D01*
Y83194D01*
X26253Y83185D01*
X26070Y83109D01*
X25933Y83004D01*
X25806Y83038D01*
Y94923D01*
X25933Y94966D01*
X26012Y94862D01*
X26170Y94741D01*
X26353Y94665D01*
X26423Y94656D01*
Y95400D01*
Y96144D01*
X26353Y96135D01*
X26170Y96059D01*
X26012Y95938D01*
X25933Y95834D01*
X25806Y95877D01*
Y98744D01*
X65856D01*
X65864Y98617D01*
X65787Y98607D01*
X65617Y98536D01*
X65471Y98424D01*
X65359Y98278D01*
X65288Y98108D01*
X65264Y97925D01*
Y97525D01*
X65288Y97342D01*
X65359Y97172D01*
X65471Y97026D01*
X65617Y96914D01*
X65787Y96843D01*
X65970Y96819D01*
X66153Y96843D01*
X66323Y96914D01*
X66469Y97026D01*
X66526Y97100D01*
X66684D01*
X66741Y97026D01*
X66887Y96914D01*
X67057Y96843D01*
X67240Y96819D01*
X67423Y96843D01*
X67593Y96914D01*
X67739Y97026D01*
X67796Y97100D01*
X67954D01*
X68011Y97026D01*
X68153Y96916D01*
Y95233D01*
X67977Y95057D01*
X57862D01*
X57837Y95184D01*
X57855Y95191D01*
X58013Y95312D01*
X58134Y95470D01*
X58210Y95653D01*
X58219Y95723D01*
X56731D01*
X56740Y95653D01*
X56816Y95470D01*
X56937Y95312D01*
X57095Y95191D01*
X57113Y95184D01*
X57088Y95057D01*
X51325D01*
X51188Y95030D01*
X51073Y94952D01*
X48053Y91933D01*
X47875Y91956D01*
X47692Y91932D01*
X47522Y91861D01*
X47376Y91749D01*
X47264Y91603D01*
X47193Y91433D01*
X47169Y91250D01*
X47193Y91067D01*
X47264Y90897D01*
X47376Y90751D01*
X47522Y90639D01*
X47692Y90568D01*
X47875Y90544D01*
X48058Y90568D01*
X48228Y90639D01*
X48374Y90751D01*
X48486Y90897D01*
X48557Y91067D01*
X48581Y91250D01*
X48558Y91428D01*
X51473Y94343D01*
X68125D01*
X68262Y94370D01*
X68377Y94448D01*
X68762Y94833D01*
X68840Y94948D01*
X68867Y95085D01*
Y95568D01*
X75927D01*
X77050Y94445D01*
Y93625D01*
X77375Y93300D01*
X78025D01*
X78279Y93554D01*
X78443Y93543D01*
X78486Y93486D01*
X78622Y93382D01*
X78780Y93317D01*
X78950Y93294D01*
X79120Y93317D01*
X79278Y93382D01*
X79414Y93486D01*
X79503Y93603D01*
X79575Y93614D01*
X79647Y93603D01*
X79736Y93486D01*
X79872Y93382D01*
X80030Y93317D01*
X80200Y93294D01*
X80370Y93317D01*
X80528Y93382D01*
X80664Y93486D01*
X80753Y93603D01*
X80825Y93614D01*
X80897Y93603D01*
X80986Y93486D01*
X81093Y93405D01*
Y93198D01*
X80802Y92907D01*
X77098D01*
X76027Y93977D01*
X75912Y94055D01*
X75775Y94082D01*
X63875D01*
X63738Y94055D01*
X63623Y93977D01*
X61102Y91457D01*
X61073D01*
X60936Y91430D01*
X60821Y91352D01*
X60578Y91110D01*
X60478Y91186D01*
X60308Y91257D01*
X60125Y91281D01*
X59942Y91257D01*
X59772Y91186D01*
X59626Y91074D01*
X59516Y90932D01*
X50495D01*
X50486Y90953D01*
X50374Y91099D01*
X50228Y91211D01*
X50058Y91282D01*
X49875Y91306D01*
X49692Y91282D01*
X49522Y91211D01*
X49376Y91099D01*
X49264Y90953D01*
X49193Y90783D01*
X49169Y90600D01*
X49193Y90417D01*
X49264Y90247D01*
X49376Y90101D01*
X49522Y89989D01*
X49692Y89918D01*
X49875Y89894D01*
X50058Y89918D01*
X50228Y89989D01*
X50374Y90101D01*
X50464Y90218D01*
X59516D01*
X59626Y90076D01*
X59772Y89964D01*
X59827Y89941D01*
X59827Y89803D01*
X59720Y89759D01*
X59562Y89638D01*
X59441Y89480D01*
X59365Y89297D01*
X59356Y89227D01*
X60844D01*
X60835Y89297D01*
X60759Y89480D01*
X60638Y89638D01*
X60480Y89759D01*
X60398Y89793D01*
X60398Y89930D01*
X60478Y89964D01*
X60615Y90068D01*
X60657Y90068D01*
X60755Y90038D01*
X60814Y89897D01*
X60926Y89751D01*
X61072Y89639D01*
X61242Y89568D01*
X61425Y89544D01*
X61603Y89567D01*
X64167Y87003D01*
X64144Y86825D01*
X64167Y86647D01*
X63827Y86307D01*
X62784D01*
X62674Y86449D01*
X62636Y86478D01*
X62651Y86627D01*
X62763Y86712D01*
X62884Y86870D01*
X62960Y87053D01*
X62969Y87123D01*
X61481D01*
X61490Y87053D01*
X61566Y86870D01*
X61687Y86712D01*
X61750Y86664D01*
X61749Y86505D01*
X61676Y86449D01*
X61564Y86303D01*
X61493Y86133D01*
X61469Y85950D01*
X61493Y85767D01*
X61564Y85597D01*
X61676Y85451D01*
X61822Y85339D01*
X61992Y85268D01*
X62175Y85244D01*
X62358Y85268D01*
X62528Y85339D01*
X62674Y85451D01*
X62784Y85593D01*
X63975D01*
X64112Y85620D01*
X64227Y85698D01*
X64672Y86142D01*
X64850Y86119D01*
X65033Y86143D01*
X65203Y86214D01*
X65349Y86326D01*
X65461Y86472D01*
X65532Y86642D01*
X65556Y86825D01*
X65532Y87008D01*
X65461Y87178D01*
X65349Y87324D01*
X65203Y87436D01*
X65033Y87507D01*
X64850Y87531D01*
X64672Y87508D01*
X62108Y90072D01*
X62131Y90250D01*
X62107Y90433D01*
X62036Y90603D01*
X61924Y90749D01*
X61778Y90861D01*
X61720Y90886D01*
X61690Y91035D01*
X64023Y93368D01*
X66674D01*
X66737Y93241D01*
X66692Y93183D01*
X66621Y93012D01*
X66597Y92830D01*
X66621Y92647D01*
X66692Y92477D01*
X66804Y92330D01*
X66950Y92218D01*
X66997Y92199D01*
Y91382D01*
X66947Y91361D01*
X66801Y91249D01*
X66689Y91103D01*
X66618Y90933D01*
X66594Y90750D01*
X66618Y90567D01*
X66689Y90397D01*
X66801Y90251D01*
X66947Y90139D01*
X67117Y90068D01*
X67300Y90044D01*
X67483Y90068D01*
X67653Y90139D01*
X67799Y90251D01*
X67911Y90397D01*
X67982Y90567D01*
X68006Y90750D01*
X67982Y90933D01*
X67911Y91103D01*
X67799Y91249D01*
X67653Y91361D01*
X67609Y91380D01*
Y92199D01*
X67656Y92218D01*
X67803Y92330D01*
X67915Y92477D01*
X67985Y92647D01*
X68009Y92830D01*
X67985Y93012D01*
X67915Y93183D01*
X67870Y93241D01*
X67932Y93368D01*
X75627D01*
X76698Y92298D01*
X76813Y92220D01*
X76950Y92193D01*
X80950D01*
X81087Y92220D01*
X81202Y92298D01*
X81702Y92798D01*
X81780Y92913D01*
X81807Y93050D01*
Y93405D01*
X81914Y93486D01*
X81965Y93553D01*
X81988Y93561D01*
X82120Y93550D01*
X82198Y93448D01*
X82345Y93335D01*
X82516Y93264D01*
X82573Y93257D01*
Y94300D01*
Y95343D01*
X82516Y95336D01*
X82345Y95265D01*
X82198Y95152D01*
X82120Y95050D01*
X81988Y95039D01*
X81965Y95047D01*
X81914Y95114D01*
X81778Y95218D01*
X81620Y95283D01*
X81450Y95306D01*
X81280Y95283D01*
X81122Y95218D01*
X80986Y95114D01*
X80897Y94997D01*
X80825Y94986D01*
X80753Y94997D01*
X80664Y95114D01*
X80528Y95218D01*
X80370Y95283D01*
X80200Y95306D01*
X80030Y95283D01*
X79872Y95218D01*
X79736Y95114D01*
X79647Y94997D01*
X79575Y94986D01*
X79503Y94997D01*
X79414Y95114D01*
X79278Y95218D01*
X79120Y95283D01*
X78950Y95306D01*
X78780Y95283D01*
X78622Y95218D01*
X78486Y95114D01*
X78443Y95057D01*
X78279Y95046D01*
X78025Y95300D01*
X77375D01*
X77290Y95215D01*
X76327Y96177D01*
X76212Y96255D01*
X76075Y96282D01*
X68867D01*
Y96916D01*
X69009Y97026D01*
X69031Y97054D01*
X69191D01*
X69242Y96987D01*
X69400Y96866D01*
X69583Y96790D01*
X69653Y96781D01*
Y97725D01*
X69780D01*
Y97852D01*
X70541D01*
Y97925D01*
X70515Y98122D01*
X70439Y98305D01*
X70318Y98463D01*
X70160Y98584D01*
X70079Y98617D01*
X70105Y98744D01*
X85319D01*
Y85228D01*
D02*
G37*
%LPC*%
G36*
X31602Y97994D02*
Y97377D01*
X32219D01*
X32210Y97447D01*
X32134Y97630D01*
X32013Y97788D01*
X31855Y97909D01*
X31672Y97985D01*
X31602Y97994D01*
D02*
G37*
G36*
X31348D02*
X31278Y97985D01*
X31095Y97909D01*
X30937Y97788D01*
X30816Y97630D01*
X30740Y97447D01*
X30731Y97377D01*
X31348D01*
Y97994D01*
D02*
G37*
G36*
X70541Y97598D02*
X69907D01*
Y96781D01*
X69977Y96790D01*
X70160Y96866D01*
X70318Y96987D01*
X70439Y97145D01*
X70515Y97328D01*
X70541Y97525D01*
Y97598D01*
D02*
G37*
G36*
X32219Y97123D02*
X31602D01*
Y96506D01*
X31672Y96515D01*
X31855Y96591D01*
X32013Y96712D01*
X32134Y96870D01*
X32210Y97053D01*
X32219Y97123D01*
D02*
G37*
G36*
X31348D02*
X30731D01*
X30740Y97053D01*
X30816Y96870D01*
X30937Y96712D01*
X31095Y96591D01*
X31278Y96515D01*
X31348Y96506D01*
Y97123D01*
D02*
G37*
G36*
X57602Y96594D02*
Y95977D01*
X58219D01*
X58210Y96047D01*
X58134Y96230D01*
X58013Y96388D01*
X57855Y96509D01*
X57672Y96585D01*
X57602Y96594D01*
D02*
G37*
G36*
X57348D02*
X57278Y96585D01*
X57095Y96509D01*
X56937Y96388D01*
X56816Y96230D01*
X56740Y96047D01*
X56731Y95977D01*
X57348D01*
Y96594D01*
D02*
G37*
G36*
X26677Y96144D02*
Y95527D01*
X27294D01*
X27285Y95597D01*
X27209Y95780D01*
X27088Y95938D01*
X26930Y96059D01*
X26747Y96135D01*
X26677Y96144D01*
D02*
G37*
G36*
X83823Y95343D02*
X83766Y95336D01*
X83595Y95265D01*
X83448Y95152D01*
X83405Y95096D01*
X83245D01*
X83202Y95152D01*
X83055Y95265D01*
X82884Y95336D01*
X82827Y95343D01*
Y94300D01*
Y93257D01*
X82884Y93264D01*
X83055Y93335D01*
X83202Y93448D01*
X83245Y93504D01*
X83405D01*
X83448Y93448D01*
X83595Y93335D01*
X83766Y93264D01*
X83823Y93257D01*
Y94300D01*
Y95343D01*
D02*
G37*
G36*
X31375Y96106D02*
X31192Y96082D01*
X31022Y96011D01*
X30876Y95899D01*
X30764Y95753D01*
X30693Y95583D01*
X30669Y95400D01*
X30693Y95217D01*
X30713Y95170D01*
X29659Y94116D01*
X29592Y94017D01*
X29569Y93900D01*
X29569Y93900D01*
Y90725D01*
X29569Y90725D01*
X29592Y90608D01*
X29659Y90509D01*
X30129Y90038D01*
X30229Y89972D01*
X30346Y89949D01*
X30346Y89949D01*
X33571D01*
X33590Y89901D01*
X33702Y89755D01*
X33849Y89643D01*
X34019Y89572D01*
X34202Y89548D01*
X34384Y89572D01*
X34555Y89643D01*
X34701Y89755D01*
X34813Y89901D01*
X34884Y90072D01*
X34908Y90254D01*
X34908Y90255D01*
X35029Y90305D01*
X35062Y90262D01*
X35220Y90141D01*
X35403Y90065D01*
X35473Y90056D01*
Y90800D01*
Y91544D01*
X35403Y91535D01*
X35220Y91459D01*
X35062Y91338D01*
X34941Y91180D01*
X34865Y90997D01*
X34839Y90800D01*
X34842Y90778D01*
X34721Y90728D01*
X34701Y90754D01*
X34555Y90866D01*
X34384Y90936D01*
X34202Y90960D01*
X34019Y90936D01*
X33849Y90866D01*
X33702Y90754D01*
X33590Y90607D01*
X33571Y90560D01*
X30472D01*
X30181Y90852D01*
Y93773D01*
X31145Y94738D01*
X31192Y94718D01*
X31375Y94694D01*
X31558Y94718D01*
X31728Y94789D01*
X31874Y94901D01*
X31986Y95047D01*
X32057Y95217D01*
X32081Y95400D01*
X32057Y95583D01*
X31986Y95753D01*
X31874Y95899D01*
X31728Y96011D01*
X31558Y96082D01*
X31375Y96106D01*
D02*
G37*
G36*
X27294Y95273D02*
X26677D01*
Y94656D01*
X26747Y94665D01*
X26930Y94741D01*
X27088Y94862D01*
X27209Y95020D01*
X27285Y95203D01*
X27294Y95273D01*
D02*
G37*
G36*
X84077Y95343D02*
Y94427D01*
X84660D01*
Y94650D01*
X84636Y94834D01*
X84565Y95005D01*
X84452Y95152D01*
X84305Y95265D01*
X84134Y95336D01*
X84077Y95343D01*
D02*
G37*
G36*
X47652Y94919D02*
Y94302D01*
X48269D01*
X48260Y94372D01*
X48184Y94555D01*
X48063Y94713D01*
X47905Y94834D01*
X47722Y94910D01*
X47652Y94919D01*
D02*
G37*
G36*
X47398D02*
X47328Y94910D01*
X47145Y94834D01*
X46987Y94713D01*
X46866Y94555D01*
X46790Y94372D01*
X46781Y94302D01*
X47398D01*
Y94919D01*
D02*
G37*
G36*
X39175Y96181D02*
X38992Y96157D01*
X38822Y96086D01*
X38676Y95974D01*
X38564Y95828D01*
X38493Y95658D01*
X38469Y95475D01*
X38493Y95292D01*
X38564Y95122D01*
X38676Y94976D01*
X38822Y94864D01*
X38992Y94793D01*
X39175Y94769D01*
X39358Y94793D01*
X39528Y94864D01*
X39674Y94976D01*
X39784Y95118D01*
X42327D01*
X42817Y94628D01*
X42794Y94450D01*
X42818Y94267D01*
X42889Y94097D01*
X43001Y93951D01*
X43147Y93839D01*
X43317Y93768D01*
X43500Y93744D01*
X43683Y93768D01*
X43853Y93839D01*
X43999Y93951D01*
X44111Y94097D01*
X44182Y94267D01*
X44206Y94450D01*
X44182Y94633D01*
X44111Y94803D01*
X43999Y94949D01*
X43853Y95061D01*
X43683Y95132D01*
X43500Y95156D01*
X43322Y95133D01*
X42727Y95727D01*
X42612Y95805D01*
X42475Y95832D01*
X39784D01*
X39674Y95974D01*
X39528Y96086D01*
X39358Y96157D01*
X39175Y96181D01*
D02*
G37*
G36*
X34023Y94094D02*
X33953Y94085D01*
X33770Y94009D01*
X33612Y93888D01*
X33491Y93730D01*
X33473Y93687D01*
X33463Y93681D01*
X33330Y93674D01*
X33243Y93788D01*
X33085Y93909D01*
X32902Y93985D01*
X32705Y94011D01*
X32332D01*
Y93250D01*
Y92489D01*
X32705D01*
X32902Y92515D01*
X33085Y92591D01*
X33243Y92712D01*
X33364Y92870D01*
X33382Y92913D01*
X33392Y92919D01*
X33525Y92926D01*
X33612Y92812D01*
X33770Y92691D01*
X33953Y92615D01*
X34023Y92606D01*
Y93350D01*
Y94094D01*
D02*
G37*
G36*
X34277D02*
Y93477D01*
X34894D01*
X34885Y93547D01*
X34809Y93730D01*
X34688Y93888D01*
X34530Y94009D01*
X34347Y94085D01*
X34277Y94094D01*
D02*
G37*
G36*
X48269Y94048D02*
X47652D01*
Y93431D01*
X47722Y93440D01*
X47905Y93516D01*
X48063Y93637D01*
X48184Y93795D01*
X48260Y93978D01*
X48269Y94048D01*
D02*
G37*
G36*
X47398D02*
X46781D01*
X46790Y93978D01*
X46866Y93795D01*
X46987Y93637D01*
X47145Y93516D01*
X47328Y93440D01*
X47398Y93431D01*
Y94048D01*
D02*
G37*
G36*
X28425Y94011D02*
X28152D01*
Y93377D01*
X29169D01*
X29160Y93447D01*
X29084Y93630D01*
X28963Y93788D01*
X28805Y93909D01*
X28622Y93985D01*
X28425Y94011D01*
D02*
G37*
G36*
X27898D02*
X27625D01*
X27428Y93985D01*
X27245Y93909D01*
X27087Y93788D01*
X26966Y93630D01*
X26890Y93447D01*
X26881Y93377D01*
X27898D01*
Y94011D01*
D02*
G37*
G36*
X32078D02*
X31705D01*
X31508Y93985D01*
X31325Y93909D01*
X31167Y93788D01*
X31046Y93630D01*
X30970Y93447D01*
X30961Y93377D01*
X32078D01*
Y94011D01*
D02*
G37*
G36*
X84660Y94173D02*
X84077D01*
Y93257D01*
X84134Y93264D01*
X84305Y93335D01*
X84452Y93448D01*
X84565Y93595D01*
X84636Y93766D01*
X84660Y93950D01*
Y94173D01*
D02*
G37*
G36*
X34894Y93223D02*
X34277D01*
Y92606D01*
X34347Y92615D01*
X34530Y92691D01*
X34688Y92812D01*
X34809Y92970D01*
X34885Y93153D01*
X34894Y93223D01*
D02*
G37*
G36*
X29169Y93123D02*
X28152D01*
Y92489D01*
X28425D01*
X28622Y92515D01*
X28805Y92591D01*
X28963Y92712D01*
X29084Y92870D01*
X29160Y93053D01*
X29169Y93123D01*
D02*
G37*
G36*
X27898D02*
X26881D01*
X26890Y93053D01*
X26966Y92870D01*
X27087Y92712D01*
X27245Y92591D01*
X27428Y92515D01*
X27625Y92489D01*
X27898D01*
Y93123D01*
D02*
G37*
G36*
X74952Y92844D02*
Y92227D01*
X75569D01*
X75560Y92297D01*
X75484Y92480D01*
X75363Y92638D01*
X75205Y92759D01*
X75022Y92835D01*
X74952Y92844D01*
D02*
G37*
G36*
X74698D02*
X74628Y92835D01*
X74445Y92759D01*
X74287Y92638D01*
X74166Y92480D01*
X74090Y92297D01*
X74081Y92227D01*
X74698D01*
Y92844D01*
D02*
G37*
G36*
X75569Y91973D02*
X74952D01*
Y91356D01*
X75022Y91365D01*
X75205Y91441D01*
X75363Y91562D01*
X75484Y91720D01*
X75560Y91903D01*
X75569Y91973D01*
D02*
G37*
G36*
X74698D02*
X74081D01*
X74090Y91903D01*
X74166Y91720D01*
X74287Y91562D01*
X74445Y91441D01*
X74628Y91365D01*
X74698Y91356D01*
Y91973D01*
D02*
G37*
G36*
X32078Y93123D02*
X30961D01*
X30970Y93053D01*
X31046Y92870D01*
X31167Y92712D01*
X31325Y92591D01*
X31508Y92515D01*
X31582Y92506D01*
X31586Y92377D01*
X31490Y92358D01*
X31308Y92237D01*
X31187Y92055D01*
X31144Y91840D01*
X31187Y91625D01*
X31308Y91443D01*
X31490Y91322D01*
X31705Y91279D01*
X31920Y91322D01*
X32102Y91443D01*
X32223Y91625D01*
X32266Y91840D01*
X32223Y92055D01*
X32102Y92237D01*
X31920Y92358D01*
X31897Y92362D01*
X31910Y92489D01*
X32078D01*
Y93123D01*
D02*
G37*
G36*
X35727Y91544D02*
Y90927D01*
X36344D01*
X36335Y90997D01*
X36259Y91180D01*
X36138Y91338D01*
X35980Y91459D01*
X35797Y91535D01*
X35727Y91544D01*
D02*
G37*
G36*
X36344Y90673D02*
X35727D01*
Y90056D01*
X35797Y90065D01*
X35980Y90141D01*
X36138Y90262D01*
X36259Y90420D01*
X36335Y90603D01*
X36344Y90673D01*
D02*
G37*
G36*
X60844Y88973D02*
X60227D01*
Y88356D01*
X60297Y88365D01*
X60480Y88441D01*
X60638Y88562D01*
X60759Y88720D01*
X60835Y88903D01*
X60844Y88973D01*
D02*
G37*
G36*
X59973D02*
X59356D01*
X59365Y88903D01*
X59441Y88720D01*
X59562Y88562D01*
X59720Y88441D01*
X59903Y88365D01*
X59973Y88356D01*
Y88973D01*
D02*
G37*
G36*
X47877Y88544D02*
Y87927D01*
X48494D01*
X48485Y87997D01*
X48409Y88180D01*
X48288Y88338D01*
X48130Y88459D01*
X47947Y88535D01*
X47877Y88544D01*
D02*
G37*
G36*
X47623D02*
X47553Y88535D01*
X47370Y88459D01*
X47212Y88338D01*
X47091Y88180D01*
X47015Y87997D01*
X47006Y87927D01*
X47623D01*
Y88544D01*
D02*
G37*
G36*
X62352Y87994D02*
Y87377D01*
X62969D01*
X62960Y87447D01*
X62884Y87630D01*
X62763Y87788D01*
X62605Y87909D01*
X62422Y87985D01*
X62352Y87994D01*
D02*
G37*
G36*
X62098D02*
X62028Y87985D01*
X61845Y87909D01*
X61687Y87788D01*
X61566Y87630D01*
X61490Y87447D01*
X61481Y87377D01*
X62098D01*
Y87994D01*
D02*
G37*
G36*
X48494Y87673D02*
X47877D01*
Y87056D01*
X47947Y87065D01*
X48130Y87141D01*
X48288Y87262D01*
X48409Y87420D01*
X48485Y87603D01*
X48494Y87673D01*
D02*
G37*
G36*
X47623D02*
X47006D01*
X47015Y87603D01*
X47091Y87420D01*
X47212Y87262D01*
X47370Y87141D01*
X47553Y87065D01*
X47623Y87056D01*
Y87673D01*
D02*
G37*
G36*
X80054Y91550D02*
X79571Y91454D01*
X79116Y91266D01*
X78706Y90992D01*
X78358Y90644D01*
X78084Y90234D01*
X77896Y89779D01*
X77800Y89296D01*
X77800Y89050D01*
X77800Y88804D01*
X77896Y88321D01*
X78085Y87866D01*
X78358Y87456D01*
X78706Y87108D01*
X79116Y86835D01*
X79571Y86646D01*
X80054Y86550D01*
X80300Y86550D01*
X80300Y86550D01*
X80546D01*
X81029Y86646D01*
X81484Y86835D01*
X81894Y87108D01*
X82242Y87456D01*
X82515Y87866D01*
X82704Y88321D01*
X82800Y88804D01*
Y89050D01*
X82800Y89050D01*
X82800Y89296D01*
X82704Y89779D01*
X82515Y90234D01*
X82242Y90644D01*
X81894Y90992D01*
X81484Y91266D01*
X81029Y91454D01*
X80546Y91550D01*
X80300Y91550D01*
X80300Y91550D01*
Y91550D01*
X80054Y91550D01*
D02*
G37*
G36*
X38554D02*
X38071Y91454D01*
X37616Y91266D01*
X37206Y90992D01*
X36858Y90644D01*
X36584Y90234D01*
X36396Y89779D01*
X36300Y89296D01*
X36300Y89050D01*
X36300Y88804D01*
X36396Y88321D01*
X36585Y87866D01*
X36858Y87456D01*
X37206Y87108D01*
X37616Y86835D01*
X38071Y86646D01*
X38554Y86550D01*
X38800Y86550D01*
X38800Y86550D01*
X39046D01*
X39529Y86646D01*
X39984Y86835D01*
X40394Y87108D01*
X40742Y87456D01*
X41015Y87866D01*
X41204Y88321D01*
X41300Y88804D01*
Y89050D01*
X41300Y89050D01*
X41300Y89296D01*
X41204Y89779D01*
X41015Y90234D01*
X40742Y90644D01*
X40394Y90992D01*
X39984Y91266D01*
X39529Y91454D01*
X39046Y91550D01*
X38800Y91550D01*
X38800Y91550D01*
Y91550D01*
X38554Y91550D01*
D02*
G37*
G36*
X34175Y87906D02*
X33992Y87882D01*
X33822Y87811D01*
X33676Y87699D01*
X33564Y87553D01*
X33544Y87506D01*
X30350D01*
X30233Y87483D01*
X30134Y87416D01*
X29334Y86616D01*
X29267Y86517D01*
X29244Y86400D01*
X29244Y86400D01*
Y84975D01*
X29117Y84949D01*
X29084Y85030D01*
X28963Y85188D01*
X28805Y85309D01*
X28622Y85385D01*
X28425Y85411D01*
X28152D01*
Y84650D01*
Y83889D01*
X28425D01*
X28622Y83915D01*
X28805Y83991D01*
X28963Y84112D01*
X29084Y84270D01*
X29117Y84351D01*
X29244Y84325D01*
Y83750D01*
X29244Y83750D01*
X29267Y83633D01*
X29334Y83534D01*
X30217Y82650D01*
X30194Y82475D01*
X30218Y82292D01*
X30289Y82122D01*
X30401Y81976D01*
X30547Y81864D01*
X30717Y81793D01*
X30900Y81769D01*
X31083Y81793D01*
X31253Y81864D01*
X31399Y81976D01*
X31511Y82122D01*
X31582Y82292D01*
X31606Y82475D01*
X31582Y82658D01*
X31511Y82828D01*
X31399Y82974D01*
X31253Y83086D01*
X31083Y83157D01*
X30900Y83181D01*
X30717Y83157D01*
X30617Y83115D01*
X29856Y83877D01*
Y86273D01*
X30477Y86894D01*
X33544D01*
X33564Y86847D01*
X33676Y86701D01*
X33822Y86589D01*
X33860Y86573D01*
X33860Y86435D01*
X33795Y86409D01*
X33637Y86288D01*
X33516Y86130D01*
X33440Y85947D01*
X33431Y85877D01*
X34919D01*
X34910Y85947D01*
X34834Y86130D01*
X34713Y86288D01*
X34555Y86409D01*
X34490Y86435D01*
X34490Y86573D01*
X34528Y86589D01*
X34674Y86701D01*
X34786Y86847D01*
X34857Y87017D01*
X34881Y87200D01*
X34857Y87383D01*
X34786Y87553D01*
X34674Y87699D01*
X34528Y87811D01*
X34358Y87882D01*
X34175Y87906D01*
D02*
G37*
G36*
X34919Y85623D02*
X34302D01*
Y85006D01*
X34372Y85015D01*
X34555Y85091D01*
X34713Y85212D01*
X34834Y85370D01*
X34910Y85553D01*
X34919Y85623D01*
D02*
G37*
G36*
X34048D02*
X33431D01*
X33440Y85553D01*
X33516Y85370D01*
X33637Y85212D01*
X33795Y85091D01*
X33978Y85015D01*
X34048Y85006D01*
Y85623D01*
D02*
G37*
G36*
X32705Y85411D02*
X32332D01*
Y84777D01*
X33449D01*
X33440Y84847D01*
X33364Y85030D01*
X33243Y85188D01*
X33085Y85309D01*
X32902Y85385D01*
X32705Y85411D01*
D02*
G37*
G36*
X27898D02*
X27625D01*
X27428Y85385D01*
X27245Y85309D01*
X27087Y85188D01*
X26966Y85030D01*
X26890Y84847D01*
X26881Y84777D01*
X27898D01*
Y85411D01*
D02*
G37*
G36*
X31705Y86621D02*
X31490Y86578D01*
X31308Y86457D01*
X31187Y86275D01*
X31144Y86060D01*
X31187Y85845D01*
X31308Y85663D01*
X31490Y85542D01*
X31586Y85523D01*
X31582Y85394D01*
X31508Y85385D01*
X31325Y85309D01*
X31167Y85188D01*
X31046Y85030D01*
X30970Y84847D01*
X30961Y84777D01*
X32078D01*
Y85411D01*
X31910D01*
X31897Y85538D01*
X31920Y85542D01*
X32102Y85663D01*
X32223Y85845D01*
X32266Y86060D01*
X32223Y86275D01*
X32102Y86457D01*
X31920Y86578D01*
X31705Y86621D01*
D02*
G37*
G36*
X75177Y84794D02*
Y84177D01*
X75794D01*
X75785Y84247D01*
X75709Y84430D01*
X75588Y84588D01*
X75430Y84709D01*
X75247Y84785D01*
X75177Y84794D01*
D02*
G37*
G36*
X74923D02*
X74853Y84785D01*
X74670Y84709D01*
X74512Y84588D01*
X74391Y84430D01*
X74315Y84247D01*
X74306Y84177D01*
X74923D01*
Y84794D01*
D02*
G37*
G36*
X33449Y84523D02*
X32332D01*
Y83889D01*
X32705D01*
X32902Y83915D01*
X33085Y83991D01*
X33243Y84112D01*
X33364Y84270D01*
X33440Y84453D01*
X33449Y84523D01*
D02*
G37*
G36*
X32078D02*
X30961D01*
X30970Y84453D01*
X31046Y84270D01*
X31167Y84112D01*
X31325Y83991D01*
X31508Y83915D01*
X31705Y83889D01*
X32078D01*
Y84523D01*
D02*
G37*
G36*
X27898D02*
X26881D01*
X26890Y84453D01*
X26966Y84270D01*
X27087Y84112D01*
X27245Y83991D01*
X27428Y83915D01*
X27625Y83889D01*
X27898D01*
Y84523D01*
D02*
G37*
G36*
X75794Y83923D02*
X75177D01*
Y83306D01*
X75247Y83315D01*
X75430Y83391D01*
X75588Y83512D01*
X75709Y83670D01*
X75785Y83853D01*
X75794Y83923D01*
D02*
G37*
G36*
X74923D02*
X74306D01*
X74315Y83853D01*
X74391Y83670D01*
X74512Y83512D01*
X74670Y83391D01*
X74853Y83315D01*
X74923Y83306D01*
Y83923D01*
D02*
G37*
G36*
X43225Y85910D02*
X42912Y85869D01*
X42620Y85748D01*
X42369Y85556D01*
X42177Y85305D01*
X42056Y85013D01*
X42015Y84700D01*
Y84300D01*
X42056Y83987D01*
X42177Y83695D01*
X42369Y83444D01*
X42620Y83252D01*
X42912Y83131D01*
X43225Y83090D01*
X43538Y83131D01*
X43830Y83252D01*
X44081Y83444D01*
X44273Y83695D01*
X44394Y83987D01*
X44435Y84300D01*
Y84700D01*
X44394Y85013D01*
X44273Y85305D01*
X44081Y85556D01*
X43830Y85748D01*
X43538Y85869D01*
X43225Y85910D01*
D02*
G37*
G36*
X36225D02*
X35912Y85869D01*
X35620Y85748D01*
X35369Y85556D01*
X35177Y85305D01*
X35056Y85013D01*
X35015Y84700D01*
Y84300D01*
X35056Y83987D01*
X35177Y83695D01*
X35369Y83444D01*
X35620Y83252D01*
X35912Y83131D01*
X36225Y83090D01*
X36538Y83131D01*
X36830Y83252D01*
X37081Y83444D01*
X37273Y83695D01*
X37394Y83987D01*
X37435Y84300D01*
Y84700D01*
X37394Y85013D01*
X37273Y85305D01*
X37081Y85556D01*
X36830Y85748D01*
X36538Y85869D01*
X36225Y85910D01*
D02*
G37*
G36*
X77126Y85851D02*
X76813Y85810D01*
X76521Y85689D01*
X76270Y85497D01*
X76078Y85246D01*
X75957Y84954D01*
X75916Y84641D01*
Y84241D01*
X75957Y83928D01*
X76078Y83636D01*
X76270Y83385D01*
X76521Y83193D01*
X76813Y83072D01*
X77126Y83031D01*
X77439Y83072D01*
X77731Y83193D01*
X77982Y83385D01*
X78174Y83636D01*
X78295Y83928D01*
X78336Y84241D01*
Y84641D01*
X78295Y84954D01*
X78174Y85246D01*
X77982Y85497D01*
X77731Y85689D01*
X77439Y85810D01*
X77126Y85851D01*
D02*
G37*
G36*
X26577Y83194D02*
Y82577D01*
X27194D01*
X27185Y82647D01*
X27109Y82830D01*
X26988Y82988D01*
X26830Y83109D01*
X26647Y83185D01*
X26577Y83194D01*
D02*
G37*
G36*
X27194Y82323D02*
X26577D01*
Y81706D01*
X26647Y81715D01*
X26830Y81791D01*
X26988Y81912D01*
X27109Y82070D01*
X27185Y82253D01*
X27194Y82323D01*
D02*
G37*
G36*
X45050Y88331D02*
X44867Y88307D01*
X44697Y88236D01*
X44551Y88124D01*
X44439Y87978D01*
X44368Y87808D01*
X44344Y87625D01*
X44368Y87442D01*
X44439Y87272D01*
X44551Y87126D01*
X44693Y87017D01*
Y82584D01*
X44551Y82474D01*
X44439Y82328D01*
X44368Y82158D01*
X44344Y81975D01*
X44368Y81792D01*
X44439Y81622D01*
X44551Y81476D01*
X44697Y81364D01*
X44867Y81293D01*
X45050Y81269D01*
X45233Y81293D01*
X45403Y81364D01*
X45549Y81476D01*
X45661Y81622D01*
X45732Y81792D01*
X45756Y81975D01*
X45732Y82158D01*
X45661Y82328D01*
X45549Y82474D01*
X45407Y82584D01*
Y87017D01*
X45549Y87126D01*
X45661Y87272D01*
X45732Y87442D01*
X45756Y87625D01*
X45732Y87808D01*
X45661Y87978D01*
X45549Y88124D01*
X45403Y88236D01*
X45233Y88307D01*
X45050Y88331D01*
D02*
G37*
G36*
X62777Y81644D02*
Y81027D01*
X63394D01*
X63385Y81097D01*
X63309Y81280D01*
X63188Y81438D01*
X63030Y81559D01*
X62847Y81635D01*
X62777Y81644D01*
D02*
G37*
G36*
X62523D02*
X62453Y81635D01*
X62270Y81559D01*
X62112Y81438D01*
X61991Y81280D01*
X61915Y81097D01*
X61906Y81027D01*
X62523D01*
Y81644D01*
D02*
G37*
G36*
X65027Y81619D02*
Y81002D01*
X65644D01*
X65635Y81072D01*
X65559Y81255D01*
X65438Y81413D01*
X65280Y81534D01*
X65097Y81610D01*
X65027Y81619D01*
D02*
G37*
G36*
X64773D02*
X64703Y81610D01*
X64520Y81534D01*
X64362Y81413D01*
X64241Y81255D01*
X64165Y81072D01*
X64156Y81002D01*
X64773D01*
Y81619D01*
D02*
G37*
G36*
X41975Y83309D02*
X41714Y83274D01*
X41471Y83174D01*
X41262Y83013D01*
X41102Y82804D01*
X41001Y82561D01*
X40966Y82300D01*
Y81700D01*
X41001Y81439D01*
X41102Y81196D01*
X41262Y80987D01*
X41471Y80826D01*
X41714Y80726D01*
X41975Y80691D01*
X42236Y80726D01*
X42479Y80826D01*
X42688Y80987D01*
X42848Y81196D01*
X42949Y81439D01*
X42984Y81700D01*
Y82300D01*
X42949Y82561D01*
X42848Y82804D01*
X42688Y83013D01*
X42479Y83174D01*
X42236Y83274D01*
X41975Y83309D01*
D02*
G37*
G36*
X37475D02*
X37214Y83274D01*
X36971Y83174D01*
X36762Y83013D01*
X36602Y82804D01*
X36501Y82561D01*
X36466Y82300D01*
Y81700D01*
X36501Y81439D01*
X36602Y81196D01*
X36762Y80987D01*
X36971Y80826D01*
X37214Y80726D01*
X37475Y80691D01*
X37736Y80726D01*
X37979Y80826D01*
X38188Y80987D01*
X38348Y81196D01*
X38449Y81439D01*
X38484Y81700D01*
Y82300D01*
X38449Y82561D01*
X38348Y82804D01*
X38188Y83013D01*
X37979Y83174D01*
X37736Y83274D01*
X37475Y83309D01*
D02*
G37*
G36*
X82876Y83250D02*
X82615Y83215D01*
X82372Y83115D01*
X82163Y82954D01*
X82003Y82745D01*
X81902Y82502D01*
X81867Y82241D01*
Y81641D01*
X81902Y81380D01*
X82003Y81137D01*
X82163Y80928D01*
X82372Y80768D01*
X82615Y80667D01*
X82876Y80632D01*
X83137Y80667D01*
X83380Y80768D01*
X83589Y80928D01*
X83749Y81137D01*
X83850Y81380D01*
X83885Y81641D01*
Y82241D01*
X83850Y82502D01*
X83749Y82745D01*
X83589Y82954D01*
X83380Y83115D01*
X83137Y83215D01*
X82876Y83250D01*
D02*
G37*
G36*
X78376D02*
X78115Y83215D01*
X77872Y83115D01*
X77663Y82954D01*
X77503Y82745D01*
X77402Y82502D01*
X77367Y82241D01*
Y81641D01*
X77402Y81380D01*
X77503Y81137D01*
X77663Y80928D01*
X77872Y80768D01*
X78115Y80667D01*
X78376Y80632D01*
X78637Y80667D01*
X78880Y80768D01*
X79089Y80928D01*
X79249Y81137D01*
X79350Y81380D01*
X79385Y81641D01*
Y82241D01*
X79350Y82502D01*
X79249Y82745D01*
X79089Y82954D01*
X78880Y83115D01*
X78637Y83215D01*
X78376Y83250D01*
D02*
G37*
G36*
X63394Y80773D02*
X62777D01*
Y80156D01*
X62847Y80165D01*
X63030Y80241D01*
X63188Y80362D01*
X63309Y80520D01*
X63385Y80703D01*
X63394Y80773D01*
D02*
G37*
G36*
X62523D02*
X61906D01*
X61915Y80703D01*
X61991Y80520D01*
X62112Y80362D01*
X62270Y80241D01*
X62453Y80165D01*
X62523Y80156D01*
Y80773D01*
D02*
G37*
G36*
X65644Y80748D02*
X65027D01*
Y80131D01*
X65097Y80140D01*
X65280Y80216D01*
X65438Y80337D01*
X65559Y80495D01*
X65635Y80678D01*
X65644Y80748D01*
D02*
G37*
G36*
X64773D02*
X64156D01*
X64165Y80678D01*
X64241Y80495D01*
X64362Y80337D01*
X64520Y80216D01*
X64703Y80140D01*
X64773Y80131D01*
Y80748D01*
D02*
G37*
%LPD*%
D20*
X42475Y95475D02*
X43500Y94450D01*
X39175Y95475D02*
X42475D01*
X49900Y90575D02*
X60125D01*
X49875Y90600D02*
X49900Y90575D01*
X45050Y81975D02*
Y87625D01*
X62175Y85950D02*
X63975D01*
X64850Y86825D01*
X47875Y91250D02*
X51325Y94700D01*
X68125D01*
X68510Y95085D01*
X76075Y95925D02*
X77700Y94300D01*
X68560Y95925D02*
X76075D01*
X68510Y95085D02*
Y97725D01*
X61425Y90250D02*
X64850Y86825D01*
X81450Y93050D02*
Y94300D01*
X60125Y90575D02*
X60548D01*
X61073Y91100D01*
X61250D01*
X63875Y93725D01*
X75775D01*
X76950Y92550D01*
X80950D01*
X81450Y93050D01*
D21*
X29875Y93900D02*
X31375Y95400D01*
X30346Y90254D02*
X34202D01*
X29875Y90725D02*
X30346Y90254D01*
X29875Y90725D02*
Y93900D01*
X30350Y87200D02*
X34175D01*
X29550Y86400D02*
X30350Y87200D01*
X29550Y83750D02*
Y86400D01*
Y83750D02*
X30825Y82475D01*
X30900D01*
X67303Y90753D02*
Y92830D01*
X67300Y90750D02*
X67303Y90753D01*
D22*
X31705Y91840D02*
D03*
Y86060D02*
D03*
D23*
X32205Y84650D02*
D03*
Y93250D02*
D03*
D24*
X28025Y84650D02*
D03*
Y93250D02*
D03*
D25*
X38800Y89050D02*
D03*
X80300D02*
D03*
D26*
X41975Y82000D02*
D03*
X37475D02*
D03*
X82876Y81941D02*
D03*
X78376D02*
D03*
D27*
X36225Y84500D02*
D03*
X43225D02*
D03*
X77126Y84441D02*
D03*
X84126D02*
D03*
D28*
X77700Y94300D02*
D03*
D29*
X78950D02*
D03*
X80200D02*
D03*
X81450D02*
D03*
X82700D02*
D03*
X83950D02*
D03*
D30*
X34202Y90254D02*
D03*
X31375Y95400D02*
D03*
X34175Y87200D02*
D03*
X30900Y82475D02*
D03*
X26450Y82450D02*
D03*
X34175Y85750D02*
D03*
X34150Y93350D02*
D03*
X26550Y95400D02*
D03*
X31475Y97250D02*
D03*
X35600Y90800D02*
D03*
X43500Y94450D02*
D03*
X39175Y95475D02*
D03*
X47525Y94175D02*
D03*
X47750Y87800D02*
D03*
X60125Y90575D02*
D03*
X49875Y90600D02*
D03*
X67303Y92830D02*
D03*
X67300Y90750D02*
D03*
X62650Y80900D02*
D03*
X64900Y80875D02*
D03*
X75050Y84050D02*
D03*
X74825Y92100D02*
D03*
X57475Y95850D02*
D03*
X45050Y81975D02*
D03*
Y87625D02*
D03*
X60100Y89100D02*
D03*
X64850Y86825D02*
D03*
X62225Y87250D02*
D03*
X62175Y85950D02*
D03*
X47875Y91250D02*
D03*
X61425Y90250D02*
D03*
D31*
X38800Y87450D02*
D03*
Y90650D02*
D03*
X37669Y90181D02*
D03*
X39931Y87919D02*
D03*
X37200Y89050D02*
D03*
X40400D02*
D03*
X37669Y87919D02*
D03*
X39931Y90181D02*
D03*
X80300Y87450D02*
D03*
Y90650D02*
D03*
X79169Y90181D02*
D03*
X81431Y87919D02*
D03*
X78700Y89050D02*
D03*
X81900D02*
D03*
X79169Y87919D02*
D03*
X81431Y90181D02*
D03*
D32*
X67240Y97725D02*
D03*
X68510D02*
D03*
X69780D02*
D03*
X65970D02*
D03*
M02*
