G04 Layer_Color=65535*
%FSLAX43Y43*%
%MOMM*%
G71*
G01*
G75*
%ADD21C,0.200*%
%ADD33C,0.400*%
%ADD34C,0.250*%
%ADD35C,0.254*%
G36*
X35175Y82950D02*
Y81750D01*
X33875D01*
Y81950D01*
X34975D01*
Y82950D01*
X33875D01*
Y83150D01*
X35175D01*
Y82950D01*
D02*
G37*
G36*
X49750Y86325D02*
X48650D01*
Y85325D01*
X49750D01*
Y85125D01*
X48450D01*
Y85325D01*
Y86325D01*
Y86525D01*
X49750D01*
Y86325D01*
D02*
G37*
G36*
X33675Y82950D02*
X32575D01*
Y81950D01*
X33675D01*
Y81750D01*
X32375D01*
Y81950D01*
Y82950D01*
Y83150D01*
X33675D01*
Y82950D01*
D02*
G37*
G36*
X28650D02*
X27550D01*
Y81950D01*
X28650D01*
Y81750D01*
X27350D01*
Y81950D01*
Y82950D01*
Y83150D01*
X28650D01*
Y82950D01*
D02*
G37*
G36*
X30150D02*
Y81750D01*
X28850D01*
Y81950D01*
X29950D01*
Y82950D01*
X28850D01*
Y83150D01*
X30150D01*
Y82950D01*
D02*
G37*
G36*
X45750Y89475D02*
Y88275D01*
X44450D01*
Y88475D01*
X45550D01*
Y89475D01*
X44450D01*
Y89675D01*
X45750D01*
Y89475D01*
D02*
G37*
G36*
X50584Y90128D02*
Y89028D01*
X50384D01*
Y90128D01*
X49384D01*
Y89028D01*
X49184D01*
Y90128D01*
Y90328D01*
X50584D01*
Y90128D01*
D02*
G37*
G36*
X44250Y89475D02*
X43150D01*
Y88475D01*
X44250D01*
Y88275D01*
X42950D01*
Y88475D01*
Y89475D01*
Y89675D01*
X44250D01*
Y89475D01*
D02*
G37*
G36*
X51250Y86325D02*
Y85125D01*
X49950D01*
Y85325D01*
X51050D01*
Y86325D01*
X49950D01*
Y86525D01*
X51250D01*
Y86325D01*
D02*
G37*
G36*
X50584Y87728D02*
Y87528D01*
X49184D01*
Y87728D01*
Y88828D01*
X49384D01*
Y87728D01*
X50384D01*
Y88828D01*
X50584D01*
Y87728D01*
D02*
G37*
G36*
X67275Y80200D02*
X65875D01*
Y81500D01*
X66075D01*
Y80400D01*
X67075D01*
Y81500D01*
X67275D01*
Y80200D01*
D02*
G37*
G36*
X69075D02*
X67675D01*
Y81500D01*
X67875D01*
Y80400D01*
X68875D01*
Y81500D01*
X69075D01*
Y80200D01*
D02*
G37*
G36*
X61325D02*
X59925D01*
Y81500D01*
X60125D01*
Y80400D01*
X61125D01*
Y81500D01*
X61325D01*
Y80200D01*
D02*
G37*
G36*
X82376Y76099D02*
X78876D01*
Y79020D01*
X82376D01*
Y76099D01*
D02*
G37*
G36*
X41475Y76158D02*
X37975D01*
Y79079D01*
X41475D01*
Y76158D01*
D02*
G37*
G36*
X69075Y82800D02*
Y81700D01*
X68875D01*
Y82800D01*
X67875D01*
Y81700D01*
X67675D01*
Y82800D01*
Y83000D01*
X69075D01*
Y82800D01*
D02*
G37*
G36*
X75750D02*
Y81700D01*
X75550D01*
Y82800D01*
X74550D01*
Y81700D01*
X74350D01*
Y82800D01*
Y83000D01*
X75750D01*
Y82800D01*
D02*
G37*
G36*
X67275D02*
Y81700D01*
X67075D01*
Y82800D01*
X66075D01*
Y81700D01*
X65875D01*
Y82800D01*
Y83000D01*
X67275D01*
Y82800D01*
D02*
G37*
G36*
X75750Y80400D02*
Y80200D01*
X74350D01*
Y80400D01*
Y81500D01*
X74550D01*
Y80400D01*
X75550D01*
Y81500D01*
X75750D01*
Y80400D01*
D02*
G37*
G36*
X61325Y82800D02*
Y81700D01*
X61125D01*
Y82800D01*
X60125D01*
Y81700D01*
X59925D01*
Y82800D01*
Y83000D01*
X61325D01*
Y82800D01*
D02*
G37*
G36*
X35100Y95900D02*
Y94700D01*
X33800D01*
Y94900D01*
X34900D01*
Y95900D01*
X33800D01*
Y96100D01*
X35100D01*
Y95900D01*
D02*
G37*
G36*
X49750Y97525D02*
X48650D01*
Y96525D01*
X49750D01*
Y96325D01*
X48450D01*
Y96525D01*
Y97525D01*
Y97725D01*
X49750D01*
Y97525D01*
D02*
G37*
G36*
X33600Y95900D02*
X32500D01*
Y94900D01*
X33600D01*
Y94700D01*
X32300D01*
Y94900D01*
Y95900D01*
Y96100D01*
X33600D01*
Y95900D01*
D02*
G37*
G36*
X28650D02*
X27550D01*
Y94900D01*
X28650D01*
Y94700D01*
X27350D01*
Y94900D01*
Y95900D01*
Y96100D01*
X28650D01*
Y95900D01*
D02*
G37*
G36*
X30150D02*
Y94700D01*
X28850D01*
Y94900D01*
X29950D01*
Y95900D01*
X28850D01*
Y96100D01*
X30150D01*
Y95900D01*
D02*
G37*
G36*
X61075Y98100D02*
X59975D01*
Y97100D01*
X61075D01*
Y96900D01*
X59775D01*
Y97100D01*
Y98100D01*
Y98300D01*
X61075D01*
Y98100D01*
D02*
G37*
G36*
X62575D02*
Y96900D01*
X61275D01*
Y97100D01*
X62375D01*
Y98100D01*
X61275D01*
Y98300D01*
X62575D01*
Y98100D01*
D02*
G37*
G36*
X59575D02*
Y96900D01*
X58275D01*
Y97100D01*
X59375D01*
Y98100D01*
X58275D01*
Y98300D01*
X59575D01*
Y98100D01*
D02*
G37*
G36*
X51250Y97525D02*
Y96325D01*
X49950D01*
Y96525D01*
X51050D01*
Y97525D01*
X49950D01*
Y97725D01*
X51250D01*
Y97525D01*
D02*
G37*
G36*
X58075Y98100D02*
X56975D01*
Y97100D01*
X58075D01*
Y96900D01*
X56775D01*
Y97100D01*
Y98100D01*
Y98300D01*
X58075D01*
Y98100D01*
D02*
G37*
G36*
X39275Y91725D02*
X37875D01*
Y93025D01*
X38075D01*
Y91925D01*
X39075D01*
Y93025D01*
X39275D01*
Y91725D01*
D02*
G37*
G36*
X40950Y91750D02*
X39550D01*
Y93050D01*
X39750D01*
Y91950D01*
X40750D01*
Y93050D01*
X40950D01*
Y91750D01*
D02*
G37*
G36*
X73900Y92600D02*
Y91600D01*
Y91400D01*
X72600D01*
Y91600D01*
X73700D01*
Y92600D01*
X72600D01*
Y92800D01*
X73900D01*
Y92600D01*
D02*
G37*
G36*
X50575Y91275D02*
Y91075D01*
X49175D01*
Y91275D01*
Y92375D01*
X49375D01*
Y91275D01*
X50375D01*
Y92375D01*
X50575D01*
Y91275D01*
D02*
G37*
G36*
X72400Y92600D02*
X71300D01*
Y91600D01*
X72400D01*
Y91400D01*
X71100D01*
Y92600D01*
Y92800D01*
X72400D01*
Y92600D01*
D02*
G37*
G36*
X39275Y94325D02*
Y93225D01*
X39075D01*
Y94325D01*
X38075D01*
Y93225D01*
X37875D01*
Y94325D01*
Y94525D01*
X39275D01*
Y94325D01*
D02*
G37*
G36*
X40950Y94350D02*
Y93250D01*
X40750D01*
Y94350D01*
X39750D01*
Y93250D01*
X39550D01*
Y94350D01*
Y94550D01*
X40950D01*
Y94350D01*
D02*
G37*
G36*
X73900Y94350D02*
Y93350D01*
Y93150D01*
X72600D01*
Y93350D01*
X73700D01*
Y94350D01*
X72600D01*
Y94550D01*
X73900D01*
Y94350D01*
D02*
G37*
G36*
X50575Y93675D02*
Y92575D01*
X50375D01*
Y93675D01*
X49375D01*
Y92575D01*
X49175D01*
Y93675D01*
Y93875D01*
X50575D01*
Y93675D01*
D02*
G37*
G36*
X72400Y94350D02*
X71300D01*
Y93350D01*
X72400D01*
Y93150D01*
X71100D01*
Y94350D01*
Y94550D01*
X72400D01*
Y94350D01*
D02*
G37*
D21*
X59025Y94249D02*
G03*
X59025Y94249I-200J0D01*
G01*
X57825Y94649D02*
G03*
X57825Y94649I-200J0D01*
G01*
X76875Y93800D02*
G03*
X76875Y93800I-200J0D01*
G01*
X71123Y97725D02*
G03*
X71123Y97725I-200J0D01*
G01*
X29125Y93450D02*
X31025D01*
X29125Y84450D02*
X31025D01*
X25425D02*
X26925D01*
X25425D02*
Y93450D01*
X26925D01*
X43525Y79435D02*
Y83100D01*
X35925Y79435D02*
Y83100D01*
X39090Y79943D02*
Y80959D01*
X40360D01*
Y79943D02*
Y80959D01*
X37185Y83499D02*
X37820D01*
Y83245D02*
Y83499D01*
Y83245D02*
X38963D01*
Y82762D02*
Y83245D01*
Y82762D02*
X40487D01*
Y83245D01*
X41503D01*
Y83499D01*
X42011D01*
X38455Y82356D02*
X38963D01*
X40233Y81975D01*
Y82356D02*
X40995D01*
X39725Y81594D02*
Y81975D01*
X39471Y81594D02*
X39725D01*
X39979D01*
X36425Y79943D02*
Y83100D01*
X43025Y79943D02*
Y83100D01*
X40360Y79943D02*
X43025D01*
X39090D02*
X40360D01*
X41475Y79079D02*
X42519D01*
X41475Y76158D02*
Y79079D01*
X37975Y76158D02*
X41475D01*
X37975Y79079D02*
X41475D01*
X37975Y76158D02*
Y79079D01*
X35925Y79435D02*
X42519D01*
Y79079D02*
Y79435D01*
X36931Y79079D02*
X37975D01*
X36931D02*
Y79435D01*
X36425Y79943D02*
X39090D01*
X42519Y79435D02*
X43525D01*
X35925Y85800D02*
Y86100D01*
X36525Y85800D02*
Y86100D01*
X35925D02*
X36525D01*
X43525Y85800D02*
Y86100D01*
X42925Y85800D02*
Y86100D01*
X43525D01*
X36725Y95400D02*
X37125Y95800D01*
Y95000D02*
Y95800D01*
X36725Y95400D02*
X37125Y95000D01*
X37125Y94800D02*
X38325D01*
X37125Y96000D02*
X38325D01*
Y94800D02*
Y96000D01*
X35825D02*
X36725D01*
X35825Y94800D02*
X36725D01*
X35525Y95100D02*
X35825Y94800D01*
X35525Y95100D02*
Y95700D01*
X35825Y96000D01*
X41275Y92350D02*
X42775D01*
X41275D02*
Y96150D01*
X48075Y92350D02*
Y96150D01*
X46575Y92350D02*
X48075D01*
X47675Y96150D02*
X48075D01*
X41275D02*
X41675D01*
X43075D02*
X43975D01*
X45375D02*
X46275D01*
X51475Y85725D02*
Y97125D01*
X52875D01*
X51475Y85725D02*
X52875D01*
X54875D02*
X56275D01*
X54875Y97125D02*
X56275D01*
Y85725D02*
Y97125D01*
X68425Y93900D02*
Y94900D01*
X67425D02*
X68425D01*
X67425Y84700D02*
X68425D01*
Y85700D01*
X58225Y84700D02*
Y85700D01*
Y84700D02*
X59225D01*
X58225Y93900D02*
Y94900D01*
X59225D01*
X84426Y79376D02*
Y83041D01*
X76826Y79376D02*
Y83041D01*
X79991Y79884D02*
Y80900D01*
X81261D01*
Y79884D02*
Y80900D01*
X78086Y83440D02*
X78721D01*
Y83186D02*
Y83440D01*
Y83186D02*
X79864D01*
Y82703D02*
Y83186D01*
Y82703D02*
X81388D01*
Y83186D01*
X82404D01*
Y83440D01*
X82912D01*
X79356Y82297D02*
X79864D01*
X81134Y81916D01*
Y82297D02*
X81896D01*
X80626Y81535D02*
Y81916D01*
X80372Y81535D02*
X80626D01*
X80880D01*
X77326Y79884D02*
Y83041D01*
X83926Y79884D02*
Y83041D01*
X81261Y79884D02*
X83926D01*
X79991D02*
X81261D01*
X82376Y79020D02*
X83420D01*
X82376Y76099D02*
Y79020D01*
X78876Y76099D02*
X82376D01*
X78876Y79020D02*
X82376D01*
X78876Y76099D02*
Y79020D01*
X76826Y79376D02*
X83420D01*
Y79020D02*
Y79376D01*
X77832Y79020D02*
X78876D01*
X77832D02*
Y79376D01*
X77326Y79884D02*
X79991D01*
X83420Y79376D02*
X84426D01*
X76826Y85741D02*
Y86041D01*
X77426Y85741D02*
Y86041D01*
X76826D02*
X77426D01*
X84426Y85741D02*
Y86041D01*
X83826Y85741D02*
Y86041D01*
X84426D01*
X76125Y94400D02*
X77075D01*
X76125D02*
Y98700D01*
X85525D01*
Y94400D02*
Y98700D01*
X84575Y94400D02*
X85525D01*
X67974Y96925D02*
X69046D01*
X69145Y97090D01*
X69046Y98525D02*
X69145Y98360D01*
X67974Y98525D02*
X69046D01*
X67875Y98360D02*
X67974Y98525D01*
X67875Y97090D02*
X67974Y96925D01*
X66704D02*
X67776D01*
X67875Y97090D01*
X67776Y98525D02*
X67875Y98360D01*
X66704Y98525D02*
X67776D01*
X66605Y98360D02*
X66704Y98525D01*
X66605Y97090D02*
X66704Y96925D01*
X65434D02*
X66506D01*
X66605Y97090D01*
X66506Y98525D02*
X66605Y98360D01*
X65434Y98525D02*
X66506D01*
X65335Y98360D02*
X65434Y98525D01*
X65335Y97090D02*
X65434Y96925D01*
X69244D02*
X70316D01*
X69145Y97090D02*
X69244Y96925D01*
X69145Y98360D02*
X69244Y98525D01*
X70316D01*
X70415Y98360D01*
Y97090D02*
Y98360D01*
X70316Y96925D02*
X70415Y97090D01*
X65335D02*
Y98360D01*
D33*
X41022Y88455D02*
G03*
X41022Y89645I-2222J595D01*
G01*
X40792Y90200D02*
G03*
X39950Y91042I-1992J-1150D01*
G01*
X39395Y91272D02*
G03*
X38205Y91272I-595J-2222D01*
G01*
X37650Y91042D02*
G03*
X36808Y90200I1150J-1992D01*
G01*
X36578Y89645D02*
G03*
X36578Y88455I2222J-595D01*
G01*
X36808Y87900D02*
G03*
X37650Y87058I1992J1150D01*
G01*
X38205Y86828D02*
G03*
X39395Y86828I595J2222D01*
G01*
X39950Y87058D02*
G03*
X40792Y87900I-1150J1992D01*
G01*
X82522Y88455D02*
G03*
X82522Y89645I-2222J595D01*
G01*
X82292Y90200D02*
G03*
X81450Y91042I-1992J-1150D01*
G01*
X80895Y91272D02*
G03*
X79705Y91272I-595J-2222D01*
G01*
X79150Y91042D02*
G03*
X78308Y90200I1150J-1992D01*
G01*
X78078Y89645D02*
G03*
X78078Y88455I2222J-595D01*
G01*
X78308Y87900D02*
G03*
X79150Y87058I1992J1150D01*
G01*
X79705Y86828D02*
G03*
X80895Y86828I595J2222D01*
G01*
X81450Y87058D02*
G03*
X82292Y87900I-1150J1992D01*
G01*
D34*
X48150Y97150D02*
G03*
X48150Y97150I-125J0D01*
G01*
D35*
X49816Y95720D02*
X49562Y95974D01*
X49054D01*
X48800Y95720D01*
Y94704D01*
X49054Y94450D01*
X49562D01*
X49816Y94704D01*
X50324Y94450D02*
X50831D01*
X50577D01*
Y95974D01*
X50324Y95720D01*
X46441Y86345D02*
X46187Y86599D01*
X45679D01*
X45425Y86345D01*
Y85329D01*
X45679Y85075D01*
X46187D01*
X46441Y85329D01*
X47964Y85075D02*
X46949D01*
X47964Y86091D01*
Y86345D01*
X47710Y86599D01*
X47202D01*
X46949Y86345D01*
X52330Y93391D02*
X52076Y93137D01*
Y92629D01*
X52330Y92375D01*
X53346D01*
X53600Y92629D01*
Y93137D01*
X53346Y93391D01*
X52330Y93899D02*
X52076Y94152D01*
Y94660D01*
X52330Y94914D01*
X52584D01*
X52838Y94660D01*
Y94406D01*
Y94660D01*
X53092Y94914D01*
X53346D01*
X53600Y94660D01*
Y94152D01*
X53346Y93899D01*
X39505Y97191D02*
X39251Y96937D01*
Y96429D01*
X39505Y96175D01*
X40521D01*
X40775Y96429D01*
Y96937D01*
X40521Y97191D01*
X40775Y98460D02*
X39251D01*
X40013Y97699D01*
Y98714D01*
X35780Y92641D02*
X35526Y92387D01*
Y91879D01*
X35780Y91625D01*
X36796D01*
X37050Y91879D01*
Y92387D01*
X36796Y92641D01*
X35526Y94164D02*
Y93149D01*
X36288D01*
X36034Y93656D01*
Y93910D01*
X36288Y94164D01*
X36796D01*
X37050Y93910D01*
Y93402D01*
X36796Y93149D01*
X47695Y88709D02*
X47949Y88963D01*
Y89471D01*
X47695Y89725D01*
X46679D01*
X46425Y89471D01*
Y88963D01*
X46679Y88709D01*
X47949Y87186D02*
X47695Y87694D01*
X47187Y88201D01*
X46679D01*
X46425Y87948D01*
Y87440D01*
X46679Y87186D01*
X46933D01*
X47187Y87440D01*
Y88201D01*
X72241Y90620D02*
X71987Y90874D01*
X71479D01*
X71225Y90620D01*
Y89604D01*
X71479Y89350D01*
X71987D01*
X72241Y89604D01*
X72749Y90874D02*
X73764D01*
Y90620D01*
X72749Y89604D01*
Y89350D01*
X58030Y81316D02*
X57776Y81062D01*
Y80554D01*
X58030Y80300D01*
X59046D01*
X59300Y80554D01*
Y81062D01*
X59046Y81316D01*
X58030Y81824D02*
X57776Y82077D01*
Y82585D01*
X58030Y82839D01*
X58284D01*
X58538Y82585D01*
X58792Y82839D01*
X59046D01*
X59300Y82585D01*
Y82077D01*
X59046Y81824D01*
X58792D01*
X58538Y82077D01*
X58284Y81824D01*
X58030D01*
X58538Y82077D02*
Y82585D01*
X69755Y81366D02*
X69501Y81112D01*
Y80604D01*
X69755Y80350D01*
X70771D01*
X71025Y80604D01*
Y81112D01*
X70771Y81366D01*
Y81874D02*
X71025Y82127D01*
Y82635D01*
X70771Y82889D01*
X69755D01*
X69501Y82635D01*
Y82127D01*
X69755Y81874D01*
X70009D01*
X70263Y82127D01*
Y82889D01*
X71941Y96170D02*
X71687Y96424D01*
X71179D01*
X70925Y96170D01*
Y95154D01*
X71179Y94900D01*
X71687D01*
X71941Y95154D01*
X72449Y94900D02*
X72956D01*
X72702D01*
Y96424D01*
X72449Y96170D01*
X73718D02*
X73972Y96424D01*
X74480D01*
X74734Y96170D01*
Y95154D01*
X74480Y94900D01*
X73972D01*
X73718Y95154D01*
Y96170D01*
X59030Y91441D02*
X58776Y91187D01*
Y90679D01*
X59030Y90425D01*
X60046D01*
X60300Y90679D01*
Y91187D01*
X60046Y91441D01*
X60300Y91949D02*
Y92456D01*
Y92202D01*
X58776D01*
X59030Y91949D01*
X60300Y93218D02*
Y93726D01*
Y93472D01*
X58776D01*
X59030Y93218D01*
X62691Y82795D02*
X62437Y83049D01*
X61929D01*
X61675Y82795D01*
Y81779D01*
X61929Y81525D01*
X62437D01*
X62691Y81779D01*
X63199Y81525D02*
X63706D01*
X63452D01*
Y83049D01*
X63199Y82795D01*
X65484Y81525D02*
X64468D01*
X65484Y82541D01*
Y82795D01*
X65230Y83049D01*
X64722D01*
X64468Y82795D01*
X36100Y98399D02*
Y96875D01*
X36862D01*
X37116Y97129D01*
Y98145D01*
X36862Y98399D01*
X36100D01*
X37624Y96875D02*
X38131D01*
X37877D01*
Y98399D01*
X37624Y98145D01*
X28326Y89466D02*
Y88958D01*
Y89212D01*
X29596D01*
X29850Y88958D01*
Y88704D01*
X29596Y88450D01*
X29850Y89974D02*
Y90481D01*
Y90227D01*
X28326D01*
X28580Y89974D01*
X80566Y97874D02*
X80058D01*
X80312D01*
Y96604D01*
X80058Y96350D01*
X79804D01*
X79550Y96604D01*
X82089Y96350D02*
X81074D01*
X82089Y97366D01*
Y97620D01*
X81835Y97874D01*
X81327D01*
X81074Y97620D01*
X27725Y79750D02*
Y81274D01*
X28487D01*
X28741Y81020D01*
Y80512D01*
X28487Y80258D01*
X27725D01*
X28233D02*
X28741Y79750D01*
X29249D02*
X29756D01*
X29502D01*
Y81274D01*
X29249Y81020D01*
X27525Y96600D02*
Y98124D01*
X28287D01*
X28541Y97870D01*
Y97362D01*
X28287Y97108D01*
X27525D01*
X28033D02*
X28541Y96600D01*
X30064D02*
X29049D01*
X30064Y97616D01*
Y97870D01*
X29810Y98124D01*
X29302D01*
X29049Y97870D01*
X53825Y87750D02*
X52301D01*
Y88512D01*
X52555Y88766D01*
X53063D01*
X53317Y88512D01*
Y87750D01*
Y88258D02*
X53825Y88766D01*
X52555Y89274D02*
X52301Y89527D01*
Y90035D01*
X52555Y90289D01*
X52809D01*
X53063Y90035D01*
Y89781D01*
Y90035D01*
X53317Y90289D01*
X53571D01*
X53825Y90035D01*
Y89527D01*
X53571Y89274D01*
X32544Y96860D02*
Y98384D01*
X33306D01*
X33560Y98130D01*
Y97622D01*
X33306Y97368D01*
X32544D01*
X33052D02*
X33560Y96860D01*
X34830D02*
Y98384D01*
X34068Y97622D01*
X35083D01*
X62425Y91000D02*
X60901D01*
Y91762D01*
X61155Y92016D01*
X61663D01*
X61917Y91762D01*
Y91000D01*
Y91508D02*
X62425Y92016D01*
X60901Y93539D02*
X61155Y93031D01*
X61663Y92524D01*
X62171D01*
X62425Y92777D01*
Y93285D01*
X62171Y93539D01*
X61917D01*
X61663Y93285D01*
Y92524D01*
X31500Y79725D02*
Y81249D01*
X32262D01*
X32516Y80995D01*
Y80487D01*
X32262Y80233D01*
X31500D01*
X32008D02*
X32516Y79725D01*
X33024D02*
X33531D01*
X33277D01*
Y81249D01*
X33024Y80995D01*
X34293D02*
X34547Y81249D01*
X35055D01*
X35309Y80995D01*
Y79979D01*
X35055Y79725D01*
X34547D01*
X34293Y79979D01*
Y80995D01*
X73725Y80075D02*
X72201D01*
Y80837D01*
X72455Y81091D01*
X72963D01*
X73217Y80837D01*
Y80075D01*
Y80583D02*
X73725Y81091D01*
Y81599D02*
Y82106D01*
Y81852D01*
X72201D01*
X72455Y81599D01*
X73725Y82868D02*
Y83376D01*
Y83122D01*
X72201D01*
X72455Y82868D01*
X39041Y85245D02*
X38787Y85499D01*
X38279D01*
X38025Y85245D01*
Y84991D01*
X38279Y84737D01*
X38787D01*
X39041Y84483D01*
Y84229D01*
X38787Y83975D01*
X38279D01*
X38025Y84229D01*
X39549Y85499D02*
Y83975D01*
X40056Y84483D01*
X40564Y83975D01*
Y85499D01*
X41072Y83975D02*
X41580D01*
X41326D01*
Y85499D01*
X41072Y85245D01*
X79716Y85420D02*
X79462Y85674D01*
X78954D01*
X78700Y85420D01*
Y85166D01*
X78954Y84912D01*
X79462D01*
X79716Y84658D01*
Y84404D01*
X79462Y84150D01*
X78954D01*
X78700Y84404D01*
X80224Y85674D02*
Y84150D01*
X80731Y84658D01*
X81239Y84150D01*
Y85674D01*
X82763Y84150D02*
X81747D01*
X82763Y85166D01*
Y85420D01*
X82509Y85674D01*
X82001D01*
X81747Y85420D01*
X63225Y90374D02*
Y89104D01*
X63479Y88850D01*
X63987D01*
X64241Y89104D01*
Y90374D01*
X64749Y88850D02*
X65256D01*
X65002D01*
Y90374D01*
X64749Y90120D01*
X46175Y93526D02*
Y94796D01*
X45921Y95050D01*
X45413D01*
X45159Y94796D01*
Y93526D01*
X43636Y95050D02*
X44651D01*
X43636Y94034D01*
Y93780D01*
X43890Y93526D01*
X44398D01*
X44651Y93780D01*
X54126Y90525D02*
X55650Y91541D01*
X54126D02*
X55650Y90525D01*
Y92049D02*
Y92556D01*
Y92302D01*
X54126D01*
X54380Y92049D01*
X72741Y98424D02*
X72233D01*
X72487D01*
Y97154D01*
X72233Y96900D01*
X71979D01*
X71725Y97154D01*
X73249Y98170D02*
X73502Y98424D01*
X74010D01*
X74264Y98170D01*
Y97916D01*
X74010Y97662D01*
X73756D01*
X74010D01*
X74264Y97408D01*
Y97154D01*
X74010Y96900D01*
X73502D01*
X73249Y97154D01*
M02*
