G04 Layer_Physical_Order=1*
G04 Layer_Color=255*
%FSLAX43Y43*%
%MOMM*%
G71*
G01*
G75*
G04:AMPARAMS|DCode=10|XSize=0.8mm|YSize=0.8mm|CornerRadius=0.2mm|HoleSize=0mm|Usage=FLASHONLY|Rotation=90.000|XOffset=0mm|YOffset=0mm|HoleType=Round|Shape=RoundedRectangle|*
%AMROUNDEDRECTD10*
21,1,0.800,0.400,0,0,90.0*
21,1,0.400,0.800,0,0,90.0*
1,1,0.400,0.200,0.200*
1,1,0.400,0.200,-0.200*
1,1,0.400,-0.200,-0.200*
1,1,0.400,-0.200,0.200*
%
%ADD10ROUNDEDRECTD10*%
G04:AMPARAMS|DCode=11|XSize=0.3mm|YSize=1mm|CornerRadius=0.075mm|HoleSize=0mm|Usage=FLASHONLY|Rotation=270.000|XOffset=0mm|YOffset=0mm|HoleType=Round|Shape=RoundedRectangle|*
%AMROUNDEDRECTD11*
21,1,0.300,0.850,0,0,270.0*
21,1,0.150,1.000,0,0,270.0*
1,1,0.150,-0.425,-0.075*
1,1,0.150,-0.425,0.075*
1,1,0.150,0.425,0.075*
1,1,0.150,0.425,-0.075*
%
%ADD11ROUNDEDRECTD11*%
G04:AMPARAMS|DCode=12|XSize=0.6mm|YSize=1mm|CornerRadius=0.15mm|HoleSize=0mm|Usage=FLASHONLY|Rotation=270.000|XOffset=0mm|YOffset=0mm|HoleType=Round|Shape=RoundedRectangle|*
%AMROUNDEDRECTD12*
21,1,0.600,0.700,0,0,270.0*
21,1,0.300,1.000,0,0,270.0*
1,1,0.300,-0.350,-0.150*
1,1,0.300,-0.350,0.150*
1,1,0.300,0.350,0.150*
1,1,0.300,0.350,-0.150*
%
%ADD12ROUNDEDRECTD12*%
G04:AMPARAMS|DCode=13|XSize=0.8mm|YSize=0.8mm|CornerRadius=0.2mm|HoleSize=0mm|Usage=FLASHONLY|Rotation=180.000|XOffset=0mm|YOffset=0mm|HoleType=Round|Shape=RoundedRectangle|*
%AMROUNDEDRECTD13*
21,1,0.800,0.400,0,0,180.0*
21,1,0.400,0.800,0,0,180.0*
1,1,0.400,-0.200,0.200*
1,1,0.400,0.200,0.200*
1,1,0.400,0.200,-0.200*
1,1,0.400,-0.200,-0.200*
%
%ADD13ROUNDEDRECTD13*%
%ADD14R,0.800X0.800*%
%ADD15R,3.200X2.200*%
%ADD16O,1.000X2.200*%
%ADD17O,1.500X3.000*%
%ADD18O,1.600X0.300*%
%ADD19O,0.300X1.600*%
%ADD20C,0.300*%
%ADD21C,0.200*%
%ADD22C,0.700*%
%ADD23O,2.000X1.000*%
%ADD24O,1.800X1.000*%
%ADD25C,4.000*%
%ADD26O,1.600X2.200*%
%ADD27O,2.000X2.400*%
G04:AMPARAMS|DCode=28|XSize=0.9mm|YSize=1.6mm|CornerRadius=0mm|HoleSize=0mm|Usage=FLASHONLY|Rotation=0.000|XOffset=0mm|YOffset=0mm|HoleType=Round|Shape=Octagon|*
%AMOCTAGOND28*
4,1,8,-0.225,0.800,0.225,0.800,0.450,0.575,0.450,-0.575,0.225,-0.800,-0.225,-0.800,-0.450,-0.575,-0.450,0.575,-0.225,0.800,0.0*
%
%ADD28OCTAGOND28*%

%ADD29O,0.900X1.600*%
%ADD30C,1.000*%
%ADD31C,0.600*%
G36*
X53426Y98617D02*
X53396Y98605D01*
X53197Y98453D01*
X53045Y98254D01*
X52949Y98023D01*
X52917Y97775D01*
Y97382D01*
X51126D01*
X51038Y97513D01*
X50906Y97602D01*
X50750Y97633D01*
X50350D01*
X50194Y97602D01*
X50062Y97513D01*
X50003Y97425D01*
X49762D01*
X49677Y97552D01*
X49527Y97653D01*
X49350Y97688D01*
X49277D01*
Y97025D01*
Y96362D01*
X49350D01*
X49527Y96397D01*
X49677Y96498D01*
X49762Y96625D01*
X50003D01*
X50062Y96537D01*
X50194Y96448D01*
X50350Y96417D01*
X50750D01*
X50906Y96448D01*
X51038Y96537D01*
X51126Y96668D01*
X51450D01*
Y86182D01*
X51126D01*
X51038Y86313D01*
X50906Y86402D01*
X50750Y86433D01*
X50350D01*
X50194Y86402D01*
X50062Y86313D01*
X50003Y86225D01*
X49762D01*
X49677Y86352D01*
X49527Y86453D01*
X49350Y86488D01*
X49277D01*
Y85825D01*
Y85162D01*
X49350D01*
X49527Y85197D01*
X49677Y85298D01*
X49762Y85425D01*
X50003D01*
X50062Y85337D01*
X50194Y85248D01*
X50350Y85217D01*
X50750D01*
X50906Y85248D01*
X51038Y85337D01*
X51126Y85468D01*
X52917D01*
Y85075D01*
X52949Y84827D01*
X53045Y84596D01*
X53197Y84397D01*
X53396Y84245D01*
X53544Y84184D01*
X53519Y84057D01*
X49748D01*
X48769Y85036D01*
X48772Y85068D01*
X48910Y85170D01*
X48950Y85162D01*
X49023D01*
Y85698D01*
X48487D01*
Y85625D01*
X48495Y85585D01*
X48393Y85447D01*
X48361Y85444D01*
X46907Y86898D01*
Y87533D01*
X47034Y87559D01*
X47091Y87420D01*
X47212Y87262D01*
X47370Y87141D01*
X47553Y87065D01*
X47623Y87056D01*
Y87800D01*
X47750D01*
Y87927D01*
X48494D01*
X48485Y87997D01*
X48409Y88180D01*
X48288Y88338D01*
X48130Y88459D01*
X48052Y88491D01*
X48077Y88618D01*
X48989D01*
X49276Y88331D01*
Y88028D01*
X49307Y87872D01*
X49396Y87740D01*
X49528Y87651D01*
X49684Y87620D01*
X50084D01*
X50240Y87651D01*
X50372Y87740D01*
X50461Y87872D01*
X50492Y88028D01*
Y88428D01*
X50461Y88584D01*
X50372Y88716D01*
X50284Y88775D01*
Y89081D01*
X50372Y89140D01*
X50461Y89272D01*
X50492Y89428D01*
Y89828D01*
X50461Y89984D01*
X50379Y90107D01*
X50486Y90247D01*
X50557Y90417D01*
X50581Y90600D01*
X50557Y90783D01*
X50486Y90953D01*
X50374Y91099D01*
X50345Y91122D01*
X50350Y91278D01*
X50363Y91287D01*
X50452Y91419D01*
X50483Y91575D01*
Y91975D01*
X50452Y92131D01*
X50363Y92263D01*
X50275Y92322D01*
Y92563D01*
X50402Y92648D01*
X50503Y92798D01*
X50538Y92975D01*
Y93048D01*
X49212D01*
Y92975D01*
X49247Y92798D01*
X49348Y92648D01*
X49475Y92563D01*
Y92322D01*
X49387Y92263D01*
X49298Y92131D01*
X49267Y91975D01*
Y91575D01*
X49298Y91419D01*
X49387Y91287D01*
X49421Y91264D01*
X49425Y91137D01*
X49376Y91099D01*
X49264Y90953D01*
X49193Y90783D01*
X49169Y90600D01*
X49193Y90417D01*
X49264Y90247D01*
X49376Y90101D01*
X49382Y90096D01*
X49307Y89984D01*
X49276Y89828D01*
Y89434D01*
X49275Y89427D01*
X49167Y89326D01*
X49137Y89332D01*
X45626D01*
X45538Y89463D01*
X45407Y89551D01*
Y89950D01*
X46475D01*
Y90893D01*
X47266D01*
X47376Y90751D01*
X47522Y90639D01*
X47692Y90568D01*
X47875Y90544D01*
X48058Y90568D01*
X48228Y90639D01*
X48374Y90751D01*
X48486Y90897D01*
X48557Y91067D01*
X48581Y91250D01*
X48557Y91433D01*
X48486Y91603D01*
X48374Y91749D01*
X48228Y91861D01*
X48058Y91932D01*
X47875Y91956D01*
X47692Y91932D01*
X47522Y91861D01*
X47376Y91749D01*
X47266Y91607D01*
X46475D01*
Y92550D01*
X46602Y92550D01*
X48231D01*
Y93909D01*
X48260Y93978D01*
X48286Y94175D01*
X48260Y94372D01*
X48231Y94441D01*
Y95950D01*
X45032D01*
Y96241D01*
X45174Y96351D01*
X45286Y96497D01*
X45357Y96667D01*
X45381Y96850D01*
Y98050D01*
X45357Y98233D01*
X45286Y98403D01*
X45174Y98549D01*
X45086Y98617D01*
X45129Y98744D01*
X46432D01*
X46476Y98617D01*
X46437Y98588D01*
X46316Y98430D01*
X46240Y98247D01*
X46214Y98050D01*
Y97577D01*
X47736D01*
Y98050D01*
X47710Y98247D01*
X47634Y98430D01*
X47513Y98588D01*
X47474Y98617D01*
X47518Y98744D01*
X53400D01*
X53426Y98617D01*
D02*
G37*
G36*
X85319Y85228D02*
X85192Y85203D01*
X85174Y85246D01*
X84982Y85497D01*
X84731Y85689D01*
X84439Y85810D01*
X84126Y85851D01*
X83813Y85810D01*
X83521Y85689D01*
X83270Y85497D01*
X83078Y85246D01*
X82957Y84954D01*
X82916Y84641D01*
Y84241D01*
X82957Y83928D01*
X83078Y83636D01*
X83270Y83385D01*
X83521Y83193D01*
X83813Y83072D01*
X84126Y83031D01*
X84439Y83072D01*
X84731Y83193D01*
X84982Y83385D01*
X85174Y83636D01*
X85192Y83679D01*
X85319Y83654D01*
Y79556D01*
X79669D01*
X79630Y79683D01*
X79652Y79698D01*
X81539Y81584D01*
X81875D01*
X81902Y81380D01*
X82003Y81137D01*
X82163Y80928D01*
X82372Y80768D01*
X82615Y80667D01*
X82876Y80632D01*
X83137Y80667D01*
X83380Y80768D01*
X83589Y80928D01*
X83749Y81137D01*
X83850Y81380D01*
X83885Y81641D01*
Y82241D01*
X83850Y82502D01*
X83749Y82745D01*
X83589Y82954D01*
X83380Y83115D01*
X83137Y83215D01*
X82876Y83250D01*
X82615Y83215D01*
X82372Y83115D01*
X82163Y82954D01*
X82003Y82745D01*
X81902Y82502D01*
X81875Y82298D01*
X81391D01*
X81254Y82271D01*
X81139Y82193D01*
X79252Y80307D01*
X75609D01*
X75579Y80352D01*
X75553Y80434D01*
X75626Y80543D01*
X77335D01*
X77472Y80570D01*
X77587Y80648D01*
X77779Y80839D01*
X77872Y80768D01*
X78115Y80667D01*
X78376Y80632D01*
X78637Y80667D01*
X78880Y80768D01*
X79089Y80928D01*
X79249Y81137D01*
X79350Y81380D01*
X79385Y81641D01*
Y82241D01*
X79350Y82502D01*
X79249Y82745D01*
X79089Y82954D01*
X78880Y83115D01*
X78637Y83215D01*
X78376Y83250D01*
X78115Y83215D01*
X77872Y83115D01*
X77663Y82954D01*
X77503Y82745D01*
X77402Y82502D01*
X77367Y82241D01*
Y81641D01*
X77391Y81461D01*
X77187Y81257D01*
X75626D01*
X75538Y81388D01*
X75450Y81447D01*
Y81688D01*
X75577Y81773D01*
X75678Y81923D01*
X75713Y82100D01*
Y82173D01*
X74387D01*
Y82100D01*
X74422Y81923D01*
X74523Y81773D01*
X74650Y81688D01*
Y81447D01*
X74562Y81388D01*
X74474Y81257D01*
X72298D01*
X70222Y83333D01*
X70176Y91802D01*
X70293Y91851D01*
X70730Y91414D01*
Y90563D01*
X70757Y90426D01*
X70835Y90311D01*
X71173Y89973D01*
X71288Y89895D01*
X71425Y89868D01*
X75750D01*
X75887Y89895D01*
X76002Y89973D01*
X79202Y93173D01*
X79280Y93288D01*
X79302Y93401D01*
X79414Y93486D01*
X79503Y93603D01*
X79575Y93614D01*
X79647Y93603D01*
X79736Y93486D01*
X79872Y93382D01*
X80030Y93317D01*
X80200Y93294D01*
X80370Y93317D01*
X80528Y93382D01*
X80664Y93486D01*
X80753Y93603D01*
X80825Y93614D01*
X80897Y93603D01*
X80986Y93486D01*
X81122Y93382D01*
X81280Y93317D01*
X81450Y93294D01*
X81620Y93317D01*
X81778Y93382D01*
X81914Y93486D01*
X81965Y93553D01*
X81988Y93561D01*
X82120Y93550D01*
X82198Y93448D01*
X82345Y93335D01*
X82516Y93264D01*
X82573Y93257D01*
Y94300D01*
Y95343D01*
X82516Y95336D01*
X82345Y95265D01*
X82198Y95152D01*
X82120Y95050D01*
X81988Y95039D01*
X81965Y95047D01*
X81914Y95114D01*
X81778Y95218D01*
X81620Y95283D01*
X81450Y95306D01*
X81280Y95283D01*
X81122Y95218D01*
X80986Y95114D01*
X80897Y94997D01*
X80825Y94986D01*
X80753Y94997D01*
X80664Y95114D01*
X80557Y95195D01*
Y95900D01*
X80530Y96037D01*
X80452Y96152D01*
X80252Y96352D01*
X80137Y96430D01*
X80000Y96457D01*
X70151D01*
X70150Y96650D01*
X66836D01*
X66787Y96767D01*
X67062Y97042D01*
X67240Y97019D01*
X67423Y97043D01*
X67593Y97114D01*
X67739Y97226D01*
X67796Y97300D01*
X67954D01*
X68011Y97226D01*
X68157Y97114D01*
X68327Y97043D01*
X68510Y97019D01*
X68693Y97043D01*
X68863Y97114D01*
X69009Y97226D01*
X69031Y97254D01*
X69191D01*
X69242Y97187D01*
X69400Y97066D01*
X69583Y96990D01*
X69653Y96981D01*
Y97725D01*
Y98469D01*
X69583Y98460D01*
X69400Y98384D01*
X69242Y98263D01*
X69191Y98196D01*
X69031D01*
X69009Y98224D01*
X68863Y98336D01*
X68693Y98407D01*
X68510Y98431D01*
X68327Y98407D01*
X68157Y98336D01*
X68011Y98224D01*
X67954Y98150D01*
X67796D01*
X67739Y98224D01*
X67593Y98336D01*
X67423Y98407D01*
X67240Y98431D01*
X67057Y98407D01*
X66887Y98336D01*
X66741Y98224D01*
X66684Y98150D01*
X66526D01*
X66469Y98224D01*
X66323Y98336D01*
X66153Y98407D01*
X65970Y98431D01*
X65787Y98407D01*
X65617Y98336D01*
X65471Y98224D01*
X65362Y98082D01*
X63200D01*
X63063Y98055D01*
X62948Y97977D01*
X62600Y97630D01*
X62483Y97678D01*
Y97800D01*
X62452Y97956D01*
X62363Y98088D01*
X62231Y98177D01*
X62075Y98208D01*
X61675D01*
X61519Y98177D01*
X61387Y98088D01*
X61328Y98000D01*
X61087D01*
X61002Y98127D01*
X60852Y98228D01*
X60675Y98263D01*
X60602D01*
Y97600D01*
Y96937D01*
X60675D01*
X60852Y96972D01*
X61002Y97073D01*
X61087Y97200D01*
X61218D01*
Y96650D01*
X59232D01*
Y97024D01*
X59363Y97112D01*
X59452Y97244D01*
X59483Y97400D01*
Y97800D01*
X59452Y97956D01*
X59363Y98088D01*
X59231Y98177D01*
X59075Y98208D01*
X58675D01*
X58519Y98177D01*
X58387Y98088D01*
X58328Y98000D01*
X58087D01*
X58002Y98127D01*
X57852Y98228D01*
X57675Y98263D01*
X57602D01*
Y97600D01*
Y96937D01*
X57675D01*
X57852Y96972D01*
X58002Y97073D01*
X58087Y97200D01*
X58328D01*
X58387Y97112D01*
X58518Y97024D01*
Y96650D01*
X56275D01*
X56250Y96660D01*
Y97125D01*
X54833D01*
Y97775D01*
X54801Y98023D01*
X54705Y98254D01*
X54553Y98453D01*
X54354Y98605D01*
X54324Y98617D01*
X54350Y98744D01*
X85319D01*
Y85228D01*
D02*
G37*
G36*
X79843Y95195D02*
X79736Y95114D01*
X79647Y94997D01*
X79575Y94986D01*
X79503Y94997D01*
X79414Y95114D01*
X79278Y95218D01*
X79120Y95283D01*
X78950Y95306D01*
X78780Y95283D01*
X78622Y95218D01*
X78486Y95114D01*
X78443Y95057D01*
X78279Y95046D01*
X78025Y95300D01*
X77375D01*
X77050Y94975D01*
Y93625D01*
X77375Y93300D01*
X78025D01*
X78270Y93545D01*
X78395Y93527D01*
X78438Y93417D01*
X75602Y90582D01*
X71573D01*
X71444Y90711D01*
Y91423D01*
X71542Y91504D01*
X71600Y91492D01*
X72000D01*
X72156Y91523D01*
X72288Y91612D01*
X72347Y91700D01*
X72588D01*
X72673Y91573D01*
X72823Y91472D01*
X73000Y91437D01*
X73073D01*
Y92100D01*
Y92763D01*
X73000D01*
X72823Y92728D01*
X72673Y92627D01*
X72588Y92500D01*
X72347D01*
X72288Y92588D01*
X72156Y92677D01*
X72000Y92708D01*
X71600D01*
X71444Y92677D01*
X71312Y92588D01*
X71276Y92585D01*
X70784Y93077D01*
X70840Y93201D01*
X70937Y93220D01*
X71052Y93298D01*
X71163Y93408D01*
X71289Y93395D01*
X71312Y93362D01*
X71444Y93273D01*
X71600Y93242D01*
X72000D01*
X72156Y93273D01*
X72288Y93362D01*
X72347Y93450D01*
X72588D01*
X72673Y93323D01*
X72823Y93222D01*
X73000Y93187D01*
X73073D01*
Y93850D01*
Y94513D01*
X73000D01*
X72823Y94478D01*
X72673Y94377D01*
X72588Y94250D01*
X72347D01*
X72288Y94338D01*
X72156Y94427D01*
X72000Y94458D01*
X71600D01*
X71444Y94427D01*
X71312Y94338D01*
X71224Y94207D01*
X71100D01*
X70963Y94180D01*
X70848Y94102D01*
X70652Y93907D01*
X70165D01*
X70156Y95601D01*
X70298Y95743D01*
X79843D01*
Y95195D01*
D02*
G37*
G36*
X41964Y98617D02*
X41876Y98549D01*
X41764Y98403D01*
X41693Y98233D01*
X41669Y98050D01*
Y96850D01*
X41693Y96667D01*
X41764Y96497D01*
X41876Y96351D01*
X42018Y96241D01*
Y95950D01*
X41119D01*
Y94257D01*
X40793D01*
X40738Y94338D01*
X40606Y94427D01*
X40450Y94458D01*
X40050D01*
X39894Y94427D01*
X39762Y94338D01*
X39674Y94207D01*
X39135D01*
X39063Y94313D01*
X38931Y94402D01*
X38775Y94433D01*
X38375D01*
X38219Y94402D01*
X38087Y94313D01*
X38015Y94207D01*
X36575D01*
X36438Y94180D01*
X36323Y94102D01*
X33927Y91707D01*
X33618D01*
X33550Y91834D01*
X33556Y91842D01*
X33587Y92000D01*
Y92300D01*
X33556Y92458D01*
X33466Y92591D01*
X33450Y92602D01*
Y92815D01*
X33577Y92858D01*
X33612Y92812D01*
X33770Y92691D01*
X33953Y92615D01*
X34023Y92606D01*
Y93350D01*
Y94094D01*
X33953Y94085D01*
X33770Y94009D01*
X33612Y93888D01*
X33577Y93842D01*
X33450Y93885D01*
Y94175D01*
X33312Y94313D01*
X25806D01*
Y94923D01*
X25933Y94966D01*
X26012Y94862D01*
X26170Y94741D01*
X26353Y94665D01*
X26423Y94656D01*
Y95400D01*
Y96144D01*
X26353Y96135D01*
X26170Y96059D01*
X26012Y95938D01*
X25933Y95834D01*
X25806Y95877D01*
Y98744D01*
X41921D01*
X41964Y98617D01*
D02*
G37*
G36*
X41119Y92550D02*
X42748D01*
X42875Y92550D01*
Y89950D01*
X44693D01*
Y89551D01*
X44562Y89463D01*
X44503Y89375D01*
X44262D01*
X44177Y89502D01*
X44027Y89603D01*
X43850Y89638D01*
X43777D01*
Y88975D01*
Y88312D01*
X43850D01*
X44027Y88347D01*
X44177Y88448D01*
X44262Y88575D01*
X44503D01*
X44562Y88487D01*
X44693Y88399D01*
Y88233D01*
X44551Y88124D01*
X44439Y87978D01*
X44368Y87808D01*
X44344Y87625D01*
X44368Y87442D01*
X44439Y87272D01*
X44532Y87150D01*
X44494Y87023D01*
X42467D01*
X42467Y87023D01*
X42350Y87000D01*
X42251Y86933D01*
X41731Y86414D01*
X38544D01*
X38536Y86427D01*
X38538Y86439D01*
X38610Y86550D01*
X38800Y86550D01*
X38800Y86550D01*
X39046D01*
X39529Y86646D01*
X39984Y86835D01*
X40394Y87108D01*
X40742Y87456D01*
X41015Y87866D01*
X41204Y88321D01*
X41300Y88804D01*
Y89050D01*
X41300Y89050D01*
X41300Y89296D01*
X41204Y89779D01*
X41015Y90234D01*
X40742Y90644D01*
X40394Y90992D01*
X39984Y91266D01*
X39529Y91454D01*
X39046Y91550D01*
X38800Y91550D01*
X38800Y91550D01*
Y91550D01*
X38554Y91550D01*
X38071Y91454D01*
X37616Y91266D01*
X37206Y90992D01*
X36858Y90644D01*
X36584Y90234D01*
X36396Y89779D01*
X36300Y89296D01*
X36300Y89050D01*
X36300Y88804D01*
X36315Y88731D01*
X36203Y88671D01*
X35957Y88916D01*
X35858Y88983D01*
X35741Y89006D01*
X35741Y89006D01*
X34181D01*
Y89423D01*
X34181Y89425D01*
X34183Y89437D01*
X34284Y89559D01*
X34384Y89572D01*
X34555Y89643D01*
X34701Y89755D01*
X34813Y89901D01*
X34884Y90072D01*
X34908Y90254D01*
X34908Y90255D01*
X35029Y90305D01*
X35062Y90262D01*
X35220Y90141D01*
X35403Y90065D01*
X35473Y90056D01*
Y90800D01*
Y91544D01*
X35403Y91535D01*
X35220Y91459D01*
X35062Y91338D01*
X34941Y91180D01*
X34865Y90997D01*
X34839Y90800D01*
X34842Y90778D01*
X34721Y90728D01*
X34701Y90754D01*
X34555Y90866D01*
X34384Y90936D01*
X34326Y90944D01*
X34295Y91076D01*
X34327Y91098D01*
X36723Y93493D01*
X37993D01*
X37998Y93469D01*
X38087Y93337D01*
X38175Y93278D01*
Y93037D01*
X38048Y92952D01*
X37947Y92802D01*
X37912Y92625D01*
Y92552D01*
X38575D01*
X39238D01*
Y92625D01*
X39203Y92802D01*
X39102Y92952D01*
X38975Y93037D01*
Y93278D01*
X39063Y93337D01*
X39152Y93469D01*
X39157Y93493D01*
X39674D01*
X39762Y93362D01*
X39850Y93303D01*
Y93062D01*
X39723Y92977D01*
X39622Y92827D01*
X39587Y92650D01*
Y92577D01*
X40250D01*
X40913D01*
Y92650D01*
X40878Y92827D01*
X40777Y92977D01*
X40650Y93062D01*
Y93303D01*
X40738Y93362D01*
X40827Y93494D01*
X40837Y93543D01*
X41119D01*
Y92550D01*
D02*
G37*
G36*
X37951Y85492D02*
X37951Y85492D01*
X38050Y85425D01*
X38167Y85402D01*
X42024D01*
X42024Y85402D01*
X42103Y85418D01*
X42182Y85312D01*
X42177Y85305D01*
X42056Y85013D01*
X42015Y84700D01*
Y84300D01*
X42056Y83987D01*
X42177Y83695D01*
X42369Y83444D01*
X42620Y83252D01*
X42912Y83131D01*
X43225Y83090D01*
X43538Y83131D01*
X43830Y83252D01*
X44081Y83444D01*
X44273Y83695D01*
X44394Y83987D01*
X44435Y84300D01*
Y84700D01*
X44394Y85013D01*
X44273Y85305D01*
X44081Y85556D01*
X43830Y85748D01*
X43538Y85869D01*
X43423Y85884D01*
X43431Y86011D01*
X45156D01*
X49234Y81934D01*
X49333Y81867D01*
X49450Y81844D01*
X55941D01*
X55941Y81844D01*
X56058Y81867D01*
X56157Y81934D01*
X56773Y82550D01*
X59976D01*
X60017Y82500D01*
Y82100D01*
X60048Y81944D01*
X60137Y81812D01*
X60225Y81753D01*
Y81512D01*
X60098Y81427D01*
X59997Y81277D01*
X59962Y81100D01*
Y81027D01*
X60625D01*
X61288D01*
Y81100D01*
X61253Y81277D01*
X61152Y81427D01*
X61025Y81512D01*
Y81753D01*
X61113Y81812D01*
X61202Y81944D01*
X61233Y82100D01*
Y82500D01*
X61274Y82550D01*
X62743D01*
X62745Y82538D01*
X62823Y82423D01*
X63218Y82027D01*
Y81575D01*
X63091Y81512D01*
X63030Y81559D01*
X62847Y81635D01*
X62777Y81644D01*
Y80900D01*
X62650D01*
Y80773D01*
X61906D01*
X61915Y80703D01*
X61986Y80534D01*
X61946Y80428D01*
X61936Y80407D01*
X61310D01*
X61259Y80502D01*
X61255Y80534D01*
X61288Y80700D01*
Y80773D01*
X60625D01*
X59962D01*
Y80700D01*
X59995Y80534D01*
X59991Y80502D01*
X59940Y80407D01*
X39573D01*
X38460Y81520D01*
X38484Y81700D01*
Y82300D01*
X38449Y82561D01*
X38348Y82804D01*
X38188Y83013D01*
X37979Y83174D01*
X37736Y83274D01*
X37475Y83309D01*
X37214Y83274D01*
X36971Y83174D01*
X36762Y83013D01*
X36602Y82804D01*
X36501Y82561D01*
X36474Y82357D01*
X36148D01*
X35802Y82702D01*
X35687Y82780D01*
X35550Y82807D01*
X35051D01*
X34963Y82938D01*
X34831Y83027D01*
X34675Y83058D01*
X34275D01*
X34119Y83027D01*
X33987Y82938D01*
X33928Y82850D01*
X33687D01*
X33602Y82977D01*
X33452Y83078D01*
X33275Y83113D01*
X33202D01*
Y82450D01*
Y81787D01*
X33275D01*
X33452Y81822D01*
X33602Y81923D01*
X33687Y82050D01*
X33928D01*
X33987Y81962D01*
X34119Y81873D01*
X34275Y81842D01*
X34675D01*
X34831Y81873D01*
X34963Y81962D01*
X35051Y82093D01*
X35402D01*
X35748Y81748D01*
X35863Y81670D01*
X36000Y81643D01*
X36474D01*
X36501Y81439D01*
X36602Y81196D01*
X36762Y80987D01*
X36971Y80826D01*
X37214Y80726D01*
X37475Y80691D01*
X37736Y80726D01*
X37979Y80826D01*
X38072Y80898D01*
X39173Y79798D01*
X39288Y79720D01*
X39425Y79693D01*
X63300D01*
X63437Y79720D01*
X63552Y79798D01*
X63827Y80073D01*
X63905Y80188D01*
X63932Y80325D01*
Y82175D01*
X63905Y82312D01*
X63830Y82423D01*
X63841Y82479D01*
X63871Y82550D01*
X65926D01*
X65967Y82500D01*
Y82100D01*
X65998Y81944D01*
X66087Y81812D01*
X66175Y81753D01*
Y81512D01*
X66048Y81427D01*
X65947Y81277D01*
X65912Y81100D01*
Y81027D01*
X66575D01*
X67238D01*
Y81100D01*
X67203Y81277D01*
X67102Y81427D01*
X66975Y81512D01*
Y81753D01*
X67063Y81812D01*
X67152Y81944D01*
X67183Y82100D01*
Y82500D01*
X67224Y82550D01*
X67726D01*
X67767Y82500D01*
Y82100D01*
X67798Y81944D01*
X67887Y81812D01*
X67975Y81753D01*
Y81512D01*
X67848Y81427D01*
X67747Y81277D01*
X67712Y81100D01*
Y81027D01*
X68375D01*
X69038D01*
Y81100D01*
X69003Y81277D01*
X68902Y81427D01*
X68775Y81512D01*
Y81753D01*
X68863Y81812D01*
X68951Y81943D01*
X69577D01*
X71823Y79698D01*
X71845Y79683D01*
X71806Y79556D01*
X25806D01*
Y81862D01*
X25933Y81896D01*
X26070Y81791D01*
X26253Y81715D01*
X26323Y81706D01*
Y82450D01*
Y83194D01*
X26253Y83185D01*
X26070Y83109D01*
X25933Y83004D01*
X25806Y83038D01*
Y83800D01*
X33450Y83800D01*
Y84532D01*
X33466Y84650D01*
X33450Y84768D01*
Y85215D01*
X33564Y85279D01*
X33593Y85270D01*
X33637Y85212D01*
X33795Y85091D01*
X33978Y85015D01*
X34048Y85006D01*
Y85750D01*
X34175D01*
Y85877D01*
X34919D01*
X34910Y85947D01*
X34834Y86130D01*
X34713Y86288D01*
X34555Y86409D01*
X34490Y86435D01*
X34490Y86573D01*
X34528Y86589D01*
X34674Y86701D01*
X34786Y86847D01*
X34857Y87017D01*
X34881Y87200D01*
X34857Y87383D01*
X34786Y87553D01*
X34674Y87699D01*
X34586Y87767D01*
X34629Y87894D01*
X35548D01*
X37951Y85492D01*
D02*
G37*
%LPC*%
G36*
X49023Y97688D02*
X48950D01*
X48773Y97653D01*
X48623Y97552D01*
X48522Y97402D01*
X48487Y97225D01*
Y97152D01*
X49023D01*
Y97688D01*
D02*
G37*
G36*
Y96898D02*
X48487D01*
Y96825D01*
X48522Y96648D01*
X48623Y96498D01*
X48773Y96397D01*
X48950Y96362D01*
X49023D01*
Y96898D01*
D02*
G37*
G36*
X47736Y97323D02*
X47102D01*
Y96106D01*
X47172Y96115D01*
X47355Y96191D01*
X47513Y96312D01*
X47634Y96470D01*
X47710Y96653D01*
X47736Y96850D01*
Y97323D01*
D02*
G37*
G36*
X46848D02*
X46214D01*
Y96850D01*
X46240Y96653D01*
X46316Y96470D01*
X46437Y96312D01*
X46595Y96191D01*
X46778Y96115D01*
X46848Y96106D01*
Y97323D01*
D02*
G37*
G36*
X50075Y93838D02*
X50002D01*
Y93302D01*
X50538D01*
Y93375D01*
X50503Y93552D01*
X50402Y93702D01*
X50252Y93803D01*
X50075Y93838D01*
D02*
G37*
G36*
X49748D02*
X49675D01*
X49498Y93803D01*
X49348Y93702D01*
X49247Y93552D01*
X49212Y93375D01*
Y93302D01*
X49748D01*
Y93838D01*
D02*
G37*
G36*
X48494Y87673D02*
X47877D01*
Y87056D01*
X47947Y87065D01*
X48130Y87141D01*
X48288Y87262D01*
X48409Y87420D01*
X48485Y87603D01*
X48494Y87673D01*
D02*
G37*
G36*
X49023Y86488D02*
X48950D01*
X48773Y86453D01*
X48623Y86352D01*
X48522Y86202D01*
X48487Y86025D01*
Y85952D01*
X49023D01*
Y86488D01*
D02*
G37*
G36*
X69907Y98469D02*
Y97852D01*
X70524D01*
X70515Y97922D01*
X70439Y98105D01*
X70318Y98263D01*
X70160Y98384D01*
X69977Y98460D01*
X69907Y98469D01*
D02*
G37*
G36*
X57348Y98263D02*
X57275D01*
X57098Y98228D01*
X56948Y98127D01*
X56847Y97977D01*
X56812Y97800D01*
Y97727D01*
X57348D01*
Y98263D01*
D02*
G37*
G36*
X60348D02*
X60275D01*
X60098Y98228D01*
X59948Y98127D01*
X59847Y97977D01*
X59812Y97800D01*
Y97727D01*
X60348D01*
Y98263D01*
D02*
G37*
G36*
X70524Y97598D02*
X69907D01*
Y96981D01*
X69977Y96990D01*
X70160Y97066D01*
X70318Y97187D01*
X70439Y97345D01*
X70515Y97528D01*
X70524Y97598D01*
D02*
G37*
G36*
X60348Y97473D02*
X59812D01*
Y97400D01*
X59847Y97223D01*
X59948Y97073D01*
X60098Y96972D01*
X60275Y96937D01*
X60348D01*
Y97473D01*
D02*
G37*
G36*
X57348Y97473D02*
X56812D01*
Y97400D01*
X56847Y97223D01*
X56948Y97073D01*
X57098Y96972D01*
X57275Y96937D01*
X57348D01*
Y97473D01*
D02*
G37*
G36*
X83823Y95343D02*
X83766Y95336D01*
X83595Y95265D01*
X83448Y95152D01*
X83405Y95096D01*
X83245D01*
X83202Y95152D01*
X83055Y95265D01*
X82884Y95336D01*
X82827Y95343D01*
Y94300D01*
Y93257D01*
X82884Y93264D01*
X83055Y93335D01*
X83202Y93448D01*
X83245Y93504D01*
X83405D01*
X83448Y93448D01*
X83595Y93335D01*
X83766Y93264D01*
X83823Y93257D01*
Y94300D01*
Y95343D01*
D02*
G37*
G36*
X84077D02*
Y94427D01*
X84660D01*
Y94650D01*
X84636Y94834D01*
X84565Y95005D01*
X84452Y95152D01*
X84305Y95265D01*
X84134Y95336D01*
X84077Y95343D01*
D02*
G37*
G36*
X84660Y94173D02*
X84077D01*
Y93257D01*
X84134Y93264D01*
X84305Y93335D01*
X84452Y93448D01*
X84565Y93595D01*
X84636Y93766D01*
X84660Y93950D01*
Y94173D01*
D02*
G37*
G36*
X80054Y91550D02*
X79571Y91454D01*
X79116Y91266D01*
X78706Y90992D01*
X78358Y90644D01*
X78084Y90234D01*
X77896Y89779D01*
X77800Y89296D01*
X77800Y89050D01*
X77800Y88804D01*
X77896Y88321D01*
X78085Y87866D01*
X78358Y87456D01*
X78706Y87108D01*
X79116Y86835D01*
X79571Y86646D01*
X80054Y86550D01*
X80300Y86550D01*
X80300Y86550D01*
X80546D01*
X81029Y86646D01*
X81484Y86835D01*
X81894Y87108D01*
X82242Y87456D01*
X82515Y87866D01*
X82704Y88321D01*
X82800Y88804D01*
Y89050D01*
X82800Y89050D01*
X82800Y89296D01*
X82704Y89779D01*
X82515Y90234D01*
X82242Y90644D01*
X81894Y90992D01*
X81484Y91266D01*
X81029Y91454D01*
X80546Y91550D01*
X80300Y91550D01*
X80300Y91550D01*
Y91550D01*
X80054Y91550D01*
D02*
G37*
G36*
X75177Y84794D02*
Y84177D01*
X75794D01*
X75785Y84247D01*
X75709Y84430D01*
X75588Y84588D01*
X75430Y84709D01*
X75247Y84785D01*
X75177Y84794D01*
D02*
G37*
G36*
X74923D02*
X74853Y84785D01*
X74670Y84709D01*
X74512Y84588D01*
X74391Y84430D01*
X74315Y84247D01*
X74306Y84177D01*
X74923D01*
Y84794D01*
D02*
G37*
G36*
X75794Y83923D02*
X75177D01*
Y83306D01*
X75247Y83315D01*
X75430Y83391D01*
X75588Y83512D01*
X75709Y83670D01*
X75785Y83853D01*
X75794Y83923D01*
D02*
G37*
G36*
X74923D02*
X74306D01*
X74315Y83853D01*
X74391Y83670D01*
X74512Y83512D01*
X74670Y83391D01*
X74853Y83315D01*
X74923Y83306D01*
Y83923D01*
D02*
G37*
G36*
X77126Y85851D02*
X76813Y85810D01*
X76521Y85689D01*
X76270Y85497D01*
X76078Y85246D01*
X75957Y84954D01*
X75916Y84641D01*
Y84241D01*
X75957Y83928D01*
X76078Y83636D01*
X76270Y83385D01*
X76521Y83193D01*
X76813Y83072D01*
X77126Y83031D01*
X77439Y83072D01*
X77731Y83193D01*
X77982Y83385D01*
X78174Y83636D01*
X78295Y83928D01*
X78336Y84241D01*
Y84641D01*
X78295Y84954D01*
X78174Y85246D01*
X77982Y85497D01*
X77731Y85689D01*
X77439Y85810D01*
X77126Y85851D01*
D02*
G37*
G36*
X75250Y82963D02*
X75177D01*
Y82427D01*
X75713D01*
Y82500D01*
X75678Y82677D01*
X75577Y82827D01*
X75427Y82928D01*
X75250Y82963D01*
D02*
G37*
G36*
X74923D02*
X74850D01*
X74673Y82928D01*
X74523Y82827D01*
X74422Y82677D01*
X74387Y82500D01*
Y82427D01*
X74923D01*
Y82963D01*
D02*
G37*
G36*
X73400Y94513D02*
X73327D01*
Y93977D01*
X73863D01*
Y94050D01*
X73828Y94227D01*
X73727Y94377D01*
X73577Y94478D01*
X73400Y94513D01*
D02*
G37*
G36*
X73863Y93723D02*
X73327D01*
Y93187D01*
X73400D01*
X73577Y93222D01*
X73727Y93323D01*
X73828Y93473D01*
X73863Y93650D01*
Y93723D01*
D02*
G37*
G36*
X74952Y92844D02*
Y92227D01*
X75569D01*
X75560Y92297D01*
X75484Y92480D01*
X75363Y92638D01*
X75205Y92759D01*
X75022Y92835D01*
X74952Y92844D01*
D02*
G37*
G36*
X74698D02*
X74628Y92835D01*
X74445Y92759D01*
X74287Y92638D01*
X74166Y92480D01*
X74090Y92297D01*
X74081Y92227D01*
X74698D01*
Y92844D01*
D02*
G37*
G36*
X73400Y92763D02*
X73327D01*
Y92227D01*
X73863D01*
Y92300D01*
X73828Y92477D01*
X73727Y92627D01*
X73577Y92728D01*
X73400Y92763D01*
D02*
G37*
G36*
X73863Y91973D02*
X73327D01*
Y91437D01*
X73400D01*
X73577Y91472D01*
X73727Y91573D01*
X73828Y91723D01*
X73863Y91900D01*
Y91973D01*
D02*
G37*
G36*
X75569Y91973D02*
X74952D01*
Y91356D01*
X75022Y91365D01*
X75205Y91441D01*
X75363Y91562D01*
X75484Y91720D01*
X75560Y91903D01*
X75569Y91973D01*
D02*
G37*
G36*
X74698D02*
X74081D01*
X74090Y91903D01*
X74166Y91720D01*
X74287Y91562D01*
X74445Y91441D01*
X74628Y91365D01*
X74698Y91356D01*
Y91973D01*
D02*
G37*
G36*
X31602Y97994D02*
Y97377D01*
X32219D01*
X32210Y97447D01*
X32134Y97630D01*
X32013Y97788D01*
X31855Y97909D01*
X31672Y97985D01*
X31602Y97994D01*
D02*
G37*
G36*
X31348D02*
X31278Y97985D01*
X31095Y97909D01*
X30937Y97788D01*
X30816Y97630D01*
X30740Y97447D01*
X30731Y97377D01*
X31348D01*
Y97994D01*
D02*
G37*
G36*
X32219Y97123D02*
X31602D01*
Y96506D01*
X31672Y96515D01*
X31855Y96591D01*
X32013Y96712D01*
X32134Y96870D01*
X32210Y97053D01*
X32219Y97123D01*
D02*
G37*
G36*
X31348D02*
X30731D01*
X30740Y97053D01*
X30816Y96870D01*
X30937Y96712D01*
X31095Y96591D01*
X31278Y96515D01*
X31348Y96506D01*
Y97123D01*
D02*
G37*
G36*
X39175Y96181D02*
X38992Y96157D01*
X38822Y96086D01*
X38676Y95974D01*
X38567Y95832D01*
X38325D01*
Y96000D01*
X37125D01*
Y94800D01*
X38325D01*
Y95118D01*
X38567D01*
X38676Y94976D01*
X38822Y94864D01*
X38992Y94793D01*
X39175Y94769D01*
X39358Y94793D01*
X39528Y94864D01*
X39674Y94976D01*
X39786Y95122D01*
X39857Y95292D01*
X39881Y95475D01*
X39857Y95658D01*
X39786Y95828D01*
X39674Y95974D01*
X39528Y96086D01*
X39358Y96157D01*
X39175Y96181D01*
D02*
G37*
G36*
X31375Y96106D02*
X31192Y96082D01*
X31022Y96011D01*
X30876Y95899D01*
X30764Y95753D01*
X30744Y95706D01*
X30037D01*
X30027Y95756D01*
X29938Y95888D01*
X29806Y95977D01*
X29650Y96008D01*
X29250D01*
X29094Y95977D01*
X28962Y95888D01*
X28903Y95800D01*
X28662D01*
X28577Y95927D01*
X28427Y96028D01*
X28250Y96063D01*
X28177D01*
Y95400D01*
Y94737D01*
X28250D01*
X28427Y94772D01*
X28577Y94873D01*
X28662Y95000D01*
X28903D01*
X28962Y94912D01*
X29094Y94823D01*
X29250Y94792D01*
X29650D01*
X29806Y94823D01*
X29938Y94912D01*
X30027Y95044D01*
X30037Y95094D01*
X30744D01*
X30764Y95047D01*
X30876Y94901D01*
X31022Y94789D01*
X31192Y94718D01*
X31375Y94694D01*
X31558Y94718D01*
X31728Y94789D01*
X31874Y94901D01*
X31986Y95047D01*
X32057Y95217D01*
X32081Y95400D01*
X32057Y95583D01*
X31986Y95753D01*
X31874Y95899D01*
X31728Y96011D01*
X31558Y96082D01*
X31375Y96106D01*
D02*
G37*
G36*
X32873Y96063D02*
X32800D01*
X32623Y96028D01*
X32473Y95927D01*
X32372Y95777D01*
X32337Y95600D01*
Y95527D01*
X32873D01*
Y96063D01*
D02*
G37*
G36*
X33200D02*
X33127D01*
Y95400D01*
Y94737D01*
X33200D01*
X33377Y94772D01*
X33527Y94873D01*
X33612Y95000D01*
X33853D01*
X33912Y94912D01*
X34044Y94823D01*
X34200Y94792D01*
X34600D01*
X34756Y94823D01*
X34888Y94912D01*
X34976Y95043D01*
X35549D01*
X35637Y94912D01*
X35769Y94823D01*
X35925Y94792D01*
X36325D01*
X36481Y94823D01*
X36613Y94912D01*
X36702Y95044D01*
X36733Y95200D01*
Y95600D01*
X36702Y95756D01*
X36613Y95888D01*
X36481Y95977D01*
X36325Y96008D01*
X35925D01*
X35769Y95977D01*
X35637Y95888D01*
X35549Y95757D01*
X34976D01*
X34888Y95888D01*
X34756Y95977D01*
X34600Y96008D01*
X34200D01*
X34044Y95977D01*
X33912Y95888D01*
X33853Y95800D01*
X33612D01*
X33527Y95927D01*
X33377Y96028D01*
X33200Y96063D01*
D02*
G37*
G36*
X32873Y95273D02*
X32337D01*
Y95200D01*
X32372Y95023D01*
X32473Y94873D01*
X32623Y94772D01*
X32800Y94737D01*
X32873D01*
Y95273D01*
D02*
G37*
G36*
X26677Y96144D02*
Y95400D01*
Y94656D01*
X26747Y94665D01*
X26930Y94741D01*
X27088Y94862D01*
X27209Y95020D01*
X27266Y95158D01*
X27398Y95145D01*
X27422Y95023D01*
X27523Y94873D01*
X27673Y94772D01*
X27850Y94737D01*
X27923D01*
Y95400D01*
Y96063D01*
X27850D01*
X27673Y96028D01*
X27523Y95927D01*
X27422Y95777D01*
X27398Y95655D01*
X27266Y95642D01*
X27209Y95780D01*
X27088Y95938D01*
X26930Y96059D01*
X26747Y96135D01*
X26677Y96144D01*
D02*
G37*
G36*
X34277Y94094D02*
Y93477D01*
X34894D01*
X34885Y93547D01*
X34809Y93730D01*
X34688Y93888D01*
X34530Y94009D01*
X34347Y94085D01*
X34277Y94094D01*
D02*
G37*
G36*
X34894Y93223D02*
X34277D01*
Y92606D01*
X34347Y92615D01*
X34530Y92691D01*
X34688Y92812D01*
X34809Y92970D01*
X34885Y93153D01*
X34894Y93223D01*
D02*
G37*
G36*
X40913Y92323D02*
X40377D01*
Y91787D01*
X40450D01*
X40627Y91822D01*
X40777Y91923D01*
X40878Y92073D01*
X40913Y92250D01*
Y92323D01*
D02*
G37*
G36*
X40123D02*
X39587D01*
Y92250D01*
X39622Y92073D01*
X39723Y91923D01*
X39873Y91822D01*
X40050Y91787D01*
X40123D01*
Y92323D01*
D02*
G37*
G36*
X39238Y92298D02*
X38702D01*
Y91762D01*
X38775D01*
X38952Y91797D01*
X39102Y91898D01*
X39203Y92048D01*
X39238Y92225D01*
Y92298D01*
D02*
G37*
G36*
X38448D02*
X37912D01*
Y92225D01*
X37947Y92048D01*
X38048Y91898D01*
X38198Y91797D01*
X38375Y91762D01*
X38448D01*
Y92298D01*
D02*
G37*
G36*
X35727Y91544D02*
Y90927D01*
X36344D01*
X36335Y90997D01*
X36259Y91180D01*
X36138Y91338D01*
X35980Y91459D01*
X35797Y91535D01*
X35727Y91544D01*
D02*
G37*
G36*
X36344Y90673D02*
X35727D01*
Y90056D01*
X35797Y90065D01*
X35980Y90141D01*
X36138Y90262D01*
X36259Y90420D01*
X36335Y90603D01*
X36344Y90673D01*
D02*
G37*
G36*
X43523Y89638D02*
X43450D01*
X43273Y89603D01*
X43123Y89502D01*
X43022Y89352D01*
X42987Y89175D01*
Y89102D01*
X43523D01*
Y89638D01*
D02*
G37*
G36*
Y88848D02*
X42987D01*
Y88775D01*
X43022Y88598D01*
X43123Y88448D01*
X43273Y88347D01*
X43450Y88312D01*
X43523D01*
Y88848D01*
D02*
G37*
G36*
X34919Y85623D02*
X34302D01*
Y85006D01*
X34372Y85015D01*
X34555Y85091D01*
X34713Y85212D01*
X34834Y85370D01*
X34910Y85553D01*
X34919Y85623D01*
D02*
G37*
G36*
X36225Y85910D02*
X35912Y85869D01*
X35620Y85748D01*
X35369Y85556D01*
X35177Y85305D01*
X35056Y85013D01*
X35015Y84700D01*
Y84300D01*
X35056Y83987D01*
X35177Y83695D01*
X35369Y83444D01*
X35620Y83252D01*
X35912Y83131D01*
X36225Y83090D01*
X36538Y83131D01*
X36830Y83252D01*
X37081Y83444D01*
X37273Y83695D01*
X37394Y83987D01*
X37435Y84300D01*
Y84700D01*
X37394Y85013D01*
X37273Y85305D01*
X37081Y85556D01*
X36830Y85748D01*
X36538Y85869D01*
X36225Y85910D01*
D02*
G37*
G36*
X30900Y83181D02*
X30717Y83157D01*
X30547Y83086D01*
X30401Y82974D01*
X30289Y82828D01*
X30269Y82781D01*
X30032D01*
X30027Y82806D01*
X29938Y82938D01*
X29806Y83027D01*
X29650Y83058D01*
X29250D01*
X29094Y83027D01*
X28962Y82938D01*
X28903Y82850D01*
X28662D01*
X28577Y82977D01*
X28427Y83078D01*
X28250Y83113D01*
X28177D01*
Y82450D01*
Y81787D01*
X28250D01*
X28427Y81822D01*
X28577Y81923D01*
X28662Y82050D01*
X28903D01*
X28962Y81962D01*
X29094Y81873D01*
X29250Y81842D01*
X29650D01*
X29806Y81873D01*
X29938Y81962D01*
X30027Y82094D01*
X30042Y82169D01*
X30269D01*
X30289Y82122D01*
X30401Y81976D01*
X30547Y81864D01*
X30717Y81793D01*
X30900Y81769D01*
X31083Y81793D01*
X31253Y81864D01*
X31399Y81976D01*
X31511Y82122D01*
X31582Y82292D01*
X31606Y82475D01*
X31582Y82658D01*
X31511Y82828D01*
X31399Y82974D01*
X31253Y83086D01*
X31083Y83157D01*
X30900Y83181D01*
D02*
G37*
G36*
X26577Y83194D02*
Y82577D01*
X27194D01*
X27185Y82647D01*
X27109Y82830D01*
X26988Y82988D01*
X26830Y83109D01*
X26647Y83185D01*
X26577Y83194D01*
D02*
G37*
G36*
X32948Y83113D02*
X32875D01*
X32698Y83078D01*
X32548Y82977D01*
X32447Y82827D01*
X32412Y82650D01*
Y82577D01*
X32948D01*
Y83113D01*
D02*
G37*
G36*
X27923D02*
X27850D01*
X27673Y83078D01*
X27523Y82977D01*
X27422Y82827D01*
X27387Y82650D01*
Y82577D01*
X27923D01*
Y83113D01*
D02*
G37*
G36*
X32948Y82323D02*
X32412D01*
Y82250D01*
X32447Y82073D01*
X32548Y81923D01*
X32698Y81822D01*
X32875Y81787D01*
X32948D01*
Y82323D01*
D02*
G37*
G36*
X27923D02*
X27387D01*
Y82250D01*
X27422Y82073D01*
X27523Y81923D01*
X27673Y81822D01*
X27850Y81787D01*
X27923D01*
Y82323D01*
D02*
G37*
G36*
X27194D02*
X26577D01*
Y81706D01*
X26647Y81715D01*
X26830Y81791D01*
X26988Y81912D01*
X27109Y82070D01*
X27185Y82253D01*
X27194Y82323D01*
D02*
G37*
G36*
X41975Y83309D02*
X41714Y83274D01*
X41471Y83174D01*
X41262Y83013D01*
X41102Y82804D01*
X41001Y82561D01*
X40966Y82300D01*
Y81700D01*
X41001Y81439D01*
X41102Y81196D01*
X41262Y80987D01*
X41471Y80826D01*
X41714Y80726D01*
X41975Y80691D01*
X42236Y80726D01*
X42479Y80826D01*
X42688Y80987D01*
X42848Y81196D01*
X42949Y81439D01*
X42976Y81643D01*
X44430D01*
X44439Y81622D01*
X44551Y81476D01*
X44697Y81364D01*
X44867Y81293D01*
X45050Y81269D01*
X45233Y81293D01*
X45403Y81364D01*
X45549Y81476D01*
X45661Y81622D01*
X45732Y81792D01*
X45756Y81975D01*
X45732Y82158D01*
X45661Y82328D01*
X45549Y82474D01*
X45403Y82586D01*
X45233Y82657D01*
X45050Y82681D01*
X44867Y82657D01*
X44697Y82586D01*
X44551Y82474D01*
X44461Y82357D01*
X42976D01*
X42949Y82561D01*
X42848Y82804D01*
X42688Y83013D01*
X42479Y83174D01*
X42236Y83274D01*
X41975Y83309D01*
D02*
G37*
G36*
X62523Y81644D02*
X62453Y81635D01*
X62270Y81559D01*
X62112Y81438D01*
X61991Y81280D01*
X61915Y81097D01*
X61906Y81027D01*
X62523D01*
Y81644D01*
D02*
G37*
G36*
X65027Y81619D02*
Y81002D01*
X65644D01*
X65635Y81072D01*
X65559Y81255D01*
X65438Y81413D01*
X65280Y81534D01*
X65097Y81610D01*
X65027Y81619D01*
D02*
G37*
G36*
X64773D02*
X64703Y81610D01*
X64520Y81534D01*
X64362Y81413D01*
X64241Y81255D01*
X64165Y81072D01*
X64156Y81002D01*
X64773D01*
Y81619D01*
D02*
G37*
G36*
X69038Y80773D02*
X68502D01*
Y80237D01*
X68575D01*
X68752Y80272D01*
X68902Y80373D01*
X69003Y80523D01*
X69038Y80700D01*
Y80773D01*
D02*
G37*
G36*
X68248D02*
X67712D01*
Y80700D01*
X67747Y80523D01*
X67848Y80373D01*
X67998Y80272D01*
X68175Y80237D01*
X68248D01*
Y80773D01*
D02*
G37*
G36*
X67238D02*
X66702D01*
Y80237D01*
X66775D01*
X66952Y80272D01*
X67102Y80373D01*
X67203Y80523D01*
X67238Y80700D01*
Y80773D01*
D02*
G37*
G36*
X66448D02*
X65912D01*
Y80700D01*
X65947Y80523D01*
X66048Y80373D01*
X66198Y80272D01*
X66375Y80237D01*
X66448D01*
Y80773D01*
D02*
G37*
G36*
X65644Y80748D02*
X65027D01*
Y80131D01*
X65097Y80140D01*
X65280Y80216D01*
X65438Y80337D01*
X65559Y80495D01*
X65635Y80678D01*
X65644Y80748D01*
D02*
G37*
G36*
X64773D02*
X64156D01*
X64165Y80678D01*
X64241Y80495D01*
X64362Y80337D01*
X64520Y80216D01*
X64703Y80140D01*
X64773Y80131D01*
Y80748D01*
D02*
G37*
%LPD*%
D10*
X34400Y95400D02*
D03*
X33000D02*
D03*
X29450Y82450D02*
D03*
X28050D02*
D03*
X29450Y95400D02*
D03*
X28050D02*
D03*
X34475Y82450D02*
D03*
X33075D02*
D03*
X43650Y88975D02*
D03*
X45050D02*
D03*
X49150Y85825D02*
D03*
X50550D02*
D03*
X49150Y97025D02*
D03*
X50550D02*
D03*
X57475Y97600D02*
D03*
X58875D02*
D03*
X73200Y92100D02*
D03*
X71800D02*
D03*
X73200Y93850D02*
D03*
X71800D02*
D03*
X61875Y97600D02*
D03*
X60475D02*
D03*
D11*
X32825Y90700D02*
D03*
Y90200D02*
D03*
Y89700D02*
D03*
Y87200D02*
D03*
Y87700D02*
D03*
Y88200D02*
D03*
Y89200D02*
D03*
Y88700D02*
D03*
D12*
Y86550D02*
D03*
Y91350D02*
D03*
Y85750D02*
D03*
Y92150D02*
D03*
D13*
X36125Y95400D02*
D03*
X38575Y92425D02*
D03*
Y93825D02*
D03*
X40250Y92450D02*
D03*
Y93850D02*
D03*
X49875Y93175D02*
D03*
Y91775D02*
D03*
X49884Y88228D02*
D03*
Y89628D02*
D03*
X75050Y80900D02*
D03*
Y82300D02*
D03*
X60625Y80900D02*
D03*
Y82300D02*
D03*
X66575Y80900D02*
D03*
Y82300D02*
D03*
X68375Y80900D02*
D03*
Y82300D02*
D03*
D14*
X37725Y95400D02*
D03*
D15*
X44675Y91250D02*
D03*
D16*
X42375Y97450D02*
D03*
X44675D02*
D03*
X46975D02*
D03*
D17*
X53875Y97025D02*
D03*
Y85825D02*
D03*
D18*
X57625Y93550D02*
D03*
Y93050D02*
D03*
Y92550D02*
D03*
Y92050D02*
D03*
Y91550D02*
D03*
Y91050D02*
D03*
Y90550D02*
D03*
Y90050D02*
D03*
Y89550D02*
D03*
Y89050D02*
D03*
Y88550D02*
D03*
Y88050D02*
D03*
Y87550D02*
D03*
Y87050D02*
D03*
Y86550D02*
D03*
Y86050D02*
D03*
X69025D02*
D03*
Y86550D02*
D03*
Y87050D02*
D03*
Y87550D02*
D03*
Y88050D02*
D03*
Y88550D02*
D03*
Y89050D02*
D03*
Y89550D02*
D03*
Y90050D02*
D03*
Y90550D02*
D03*
Y91050D02*
D03*
Y91550D02*
D03*
Y92050D02*
D03*
Y92550D02*
D03*
Y93050D02*
D03*
Y93550D02*
D03*
D19*
X59575Y84100D02*
D03*
X60075D02*
D03*
X60575D02*
D03*
X61075D02*
D03*
X61575D02*
D03*
X62075D02*
D03*
X62575D02*
D03*
X63075D02*
D03*
X63575D02*
D03*
X64075D02*
D03*
X64575D02*
D03*
X65075D02*
D03*
X65575D02*
D03*
X66075D02*
D03*
X66575D02*
D03*
X67075D02*
D03*
Y95500D02*
D03*
X66575D02*
D03*
X66075D02*
D03*
X65575D02*
D03*
X65075D02*
D03*
X64575D02*
D03*
X64075D02*
D03*
X63575D02*
D03*
X63075D02*
D03*
X62575D02*
D03*
X62075D02*
D03*
X61575D02*
D03*
X61075D02*
D03*
X60575D02*
D03*
X60075D02*
D03*
X59575D02*
D03*
D20*
X32205Y85130D02*
X32825Y85750D01*
X32205Y92770D02*
X32825Y92150D01*
X32205Y92770D02*
Y93250D01*
X28025Y84650D02*
Y93250D01*
X30600Y89725D02*
X32225Y91350D01*
X32825D01*
X30600Y88175D02*
Y89725D01*
Y88175D02*
X32225Y86550D01*
X32825D01*
X28050Y93275D02*
Y95400D01*
X28025Y93250D02*
X32205D01*
X28050Y82450D02*
Y84625D01*
X28025Y84650D02*
X32205D01*
X26450Y82450D02*
X28050D01*
X32825Y85750D02*
X34175D01*
X34175Y85750D01*
X32825Y92150D02*
X33675D01*
X34150Y92625D01*
Y93350D01*
X26550Y95400D02*
X28050D01*
X34475Y82450D02*
X35550D01*
X36000Y82000D01*
X37475D01*
X33075Y82450D02*
Y83350D01*
X34175Y84450D01*
Y85750D01*
X34400Y95400D02*
X36125D01*
X31475Y96925D02*
X33000Y95400D01*
X31475Y96925D02*
Y97250D01*
X34075Y91350D02*
X36575Y93850D01*
X32825Y91350D02*
X34075D01*
X38600Y92450D02*
X40250D01*
X37225Y92425D02*
X38575D01*
X35600Y90800D02*
X37225Y92425D01*
X40250Y93850D02*
X40300Y93900D01*
X42125D01*
X42375Y94150D01*
Y97450D01*
X36575Y93850D02*
X40250D01*
X43500Y94450D02*
X44675D01*
X37800Y95475D02*
X39175D01*
X44675Y91250D02*
Y94450D01*
Y97450D01*
X45050Y88975D02*
Y90875D01*
X41625Y91000D02*
X43650Y88975D01*
X41625Y91000D02*
Y92175D01*
X41350Y92450D02*
X41625Y92175D01*
X40250Y92450D02*
X41350D01*
X50550Y85825D02*
X53875D01*
X50550Y97025D02*
X53875D01*
X47525Y94175D02*
X49875D01*
X49875Y94175D02*
X49875Y94175D01*
X49875Y93175D02*
Y94175D01*
X47100Y97025D02*
X49150D01*
X46975Y94725D02*
Y97450D01*
X49137Y88975D02*
X49884Y88228D01*
X48550Y85825D02*
X49150D01*
X47750Y86625D02*
X48550Y85825D01*
X47750Y86625D02*
Y87800D01*
X53875Y93300D02*
Y97025D01*
Y93300D02*
X55625Y91550D01*
X57625D01*
X55650Y91050D02*
X57625D01*
X53875Y89275D02*
X55650Y91050D01*
X53875Y85825D02*
Y89275D01*
X57625Y90550D02*
X60100D01*
X60125Y90575D01*
X49884Y89628D02*
Y91766D01*
X60575Y82350D02*
Y84100D01*
X60625Y80900D02*
X62650D01*
X62650Y80900D01*
X66575Y80900D02*
X68375D01*
X67075Y84100D02*
X67975D01*
X68375Y83700D01*
Y82300D02*
Y83700D01*
X64925Y80900D02*
X66575D01*
X64900Y80875D02*
X64925Y80900D01*
X75050Y82300D02*
Y84050D01*
Y80900D02*
X77335D01*
X78376Y81941D01*
X73200Y92100D02*
Y93850D01*
Y92100D02*
X74825D01*
X74825Y92100D01*
X61575Y95500D02*
Y97300D01*
X61875Y97600D01*
X58875Y96200D02*
X59575Y95500D01*
X58875Y96200D02*
Y97600D01*
X57475D02*
Y98025D01*
X57850Y98400D01*
X59675D01*
X60475Y97600D01*
X57475Y95850D02*
Y97600D01*
Y95850D02*
X57475Y95850D01*
X62075Y95500D02*
Y96600D01*
X63200Y97725D01*
X65970D01*
X66165Y96650D02*
X67240Y97725D01*
X62868Y96650D02*
X66165D01*
X62575Y96357D02*
X62868Y96650D01*
X62575Y95500D02*
Y96357D01*
X62575Y95500D02*
X62575D01*
X81391Y81941D02*
X82876D01*
X79400Y79950D02*
X81391Y81941D01*
X72075Y79950D02*
X79400D01*
X69725Y82300D02*
X72075Y79950D01*
X68375Y82300D02*
X69725D01*
X45050Y81975D02*
X45075Y82000D01*
X45050Y87625D02*
Y88975D01*
X41975Y82000D02*
X45075D01*
X37475D02*
X39425Y80050D01*
X63300D01*
X63075Y82675D02*
Y84100D01*
X46550Y86750D02*
X49600Y83700D01*
X54450D01*
X45050Y88975D02*
X49137D01*
X56751Y87550D02*
X57625D01*
X56351Y87150D02*
X56751Y87550D01*
X54450Y83700D02*
X56351Y85601D01*
Y87150D01*
X59575Y93250D02*
Y95500D01*
X57625Y88050D02*
X59050D01*
X60100Y89100D01*
X61325Y89000D02*
Y91500D01*
X59875Y87550D02*
X61325Y89000D01*
X57625Y87550D02*
X59875D01*
X68510Y93640D02*
X68600Y93550D01*
X69025D01*
X64000Y94175D02*
X68510D01*
Y93640D02*
Y94175D01*
X46550Y86750D02*
Y88975D01*
X63300Y80050D02*
X63575Y80325D01*
Y82175D01*
X63075Y82675D02*
X63575Y82175D01*
X63575Y84100D02*
Y87402D01*
X72150Y80900D02*
X75050D01*
X59575Y93250D02*
X61287Y91537D01*
X61362Y91537D02*
X64000Y94175D01*
X63575Y87402D02*
X63923Y87750D01*
X65300D01*
X72150Y80900D01*
X64850Y86825D02*
X65450D01*
X67075Y85200D01*
Y84100D02*
Y85200D01*
X60075Y84100D02*
Y85575D01*
X61750Y87250D02*
X62225D01*
X60075Y85575D02*
X61750Y87250D01*
X60575Y84100D02*
Y85150D01*
X61375Y85950D01*
X62175D01*
X78950Y93425D02*
Y94300D01*
X75750Y90225D02*
X78950Y93425D01*
X71425Y90225D02*
X75750D01*
X70099Y92550D02*
X70175Y92474D01*
X69025Y92550D02*
X70099D01*
X69025Y93050D02*
X70306D01*
X69025Y93050D02*
X69025Y93050D01*
X70306D02*
X71256Y92100D01*
X71800D01*
X70175Y92474D02*
X70175D01*
X71087Y91562D01*
Y90563D02*
Y91562D01*
Y90563D02*
X71425Y90225D01*
X69025Y93550D02*
X70800D01*
X71100Y93850D01*
X71800D01*
X80200Y94300D02*
Y95900D01*
X80000Y96100D02*
X80200Y95900D01*
X70150Y96100D02*
X80000D01*
X67075Y95500D02*
X69550D01*
X70150Y96100D01*
X44675Y91250D02*
X47875D01*
X46975Y94725D02*
X47525Y94175D01*
X60075Y95500D02*
Y96500D01*
X60475Y96900D01*
Y97600D01*
D21*
X32825Y90200D02*
X34147D01*
X34202Y90254D01*
X29575Y95275D02*
X29700Y95400D01*
X31375D01*
X32825Y87200D02*
X34175D01*
X29450Y82450D02*
X29475Y82475D01*
X30900D01*
X65395Y91605D02*
X67300D01*
X32050Y88200D02*
X32825D01*
X31500Y88750D02*
X32050Y88200D01*
X35675D02*
X38167Y85708D01*
X31950Y89200D02*
X32825D01*
X31500Y88750D02*
X31950Y89200D01*
X32825Y88200D02*
X35675D01*
X49450Y82150D02*
X55941D01*
X38167Y85708D02*
X42024D01*
X42633Y86317D01*
X32825Y88700D02*
X33575D01*
X35741D02*
X38333Y86108D01*
X33575Y88700D02*
X33875Y89000D01*
X32825Y89700D02*
X33600D01*
X33575Y88700D02*
X35741D01*
X33600Y89700D02*
X33875Y89425D01*
Y89000D02*
Y89425D01*
X49616Y82550D02*
X55775D01*
X38333Y86108D02*
X41858D01*
X42467Y86717D01*
X68021Y91550D02*
X69025D01*
X67567Y92005D02*
X68021Y91550D01*
X65230Y92005D02*
X67567D01*
X68975Y92100D02*
X69025Y92050D01*
X68189Y92100D02*
X68975D01*
X67489Y92800D02*
X68189Y92100D01*
X67300Y92800D02*
X67303Y92803D01*
Y92830D01*
X67300Y90750D02*
Y91605D01*
Y92800D02*
X67489D01*
X66575Y82300D02*
Y84100D01*
X42633Y86317D02*
X45283D01*
X49450Y82150D01*
X42467Y86717D02*
X45449D01*
X49616Y82550D01*
X55775D02*
X65230Y92005D01*
X55941Y82150D02*
X65395Y91605D01*
D22*
X31705Y91840D02*
D03*
Y86060D02*
D03*
D23*
X32205Y84650D02*
D03*
Y93250D02*
D03*
D24*
X28025Y84650D02*
D03*
Y93250D02*
D03*
D25*
X38800Y89050D02*
D03*
X80300D02*
D03*
D26*
X41975Y82000D02*
D03*
X37475D02*
D03*
X82876Y81941D02*
D03*
X78376D02*
D03*
D27*
X36225Y84500D02*
D03*
X43225D02*
D03*
X77126Y84441D02*
D03*
X84126D02*
D03*
D28*
X77700Y94300D02*
D03*
D29*
X78950D02*
D03*
X80200D02*
D03*
X81450D02*
D03*
X82700D02*
D03*
X83950D02*
D03*
D30*
X67240Y97725D02*
D03*
X68510D02*
D03*
X69780D02*
D03*
X65970D02*
D03*
X34202Y90254D02*
D03*
X31375Y95400D02*
D03*
X34175Y87200D02*
D03*
X30900Y82475D02*
D03*
X26450Y82450D02*
D03*
X34175Y85750D02*
D03*
X34150Y93350D02*
D03*
X26550Y95400D02*
D03*
X31475Y97250D02*
D03*
X35600Y90800D02*
D03*
X43500Y94450D02*
D03*
X39175Y95475D02*
D03*
X47525Y94175D02*
D03*
X47750Y87800D02*
D03*
X60125Y90575D02*
D03*
X49875Y90600D02*
D03*
X67303Y92830D02*
D03*
X67300Y90750D02*
D03*
X62650Y80900D02*
D03*
X64900Y80875D02*
D03*
X75050Y84050D02*
D03*
X74825Y92100D02*
D03*
X57475Y95850D02*
D03*
X45050Y81975D02*
D03*
Y87625D02*
D03*
X60100Y89100D02*
D03*
X64850Y86825D02*
D03*
X62225Y87250D02*
D03*
X62175Y85950D02*
D03*
X47875Y91250D02*
D03*
X61425Y90250D02*
D03*
D31*
X38800Y87450D02*
D03*
Y90650D02*
D03*
X37669Y90181D02*
D03*
X39931Y87919D02*
D03*
X37200Y89050D02*
D03*
X40400D02*
D03*
X37669Y87919D02*
D03*
X39931Y90181D02*
D03*
X80300Y87450D02*
D03*
Y90650D02*
D03*
X79169Y90181D02*
D03*
X81431Y87919D02*
D03*
X78700Y89050D02*
D03*
X81900D02*
D03*
X79169Y87919D02*
D03*
X81431Y90181D02*
D03*
M02*
