G04 Layer_Color=255*
%FSLAX43Y43*%
%MOMM*%
G71*
G01*
G75*
G04:AMPARAMS|DCode=10|XSize=0.8mm|YSize=0.8mm|CornerRadius=0.2mm|HoleSize=0mm|Usage=FLASHONLY|Rotation=90.000|XOffset=0mm|YOffset=0mm|HoleType=Round|Shape=RoundedRectangle|*
%AMROUNDEDRECTD10*
21,1,0.800,0.400,0,0,90.0*
21,1,0.400,0.800,0,0,90.0*
1,1,0.400,0.200,0.200*
1,1,0.400,0.200,-0.200*
1,1,0.400,-0.200,-0.200*
1,1,0.400,-0.200,0.200*
%
%ADD10ROUNDEDRECTD10*%
G04:AMPARAMS|DCode=11|XSize=0.3mm|YSize=1mm|CornerRadius=0.075mm|HoleSize=0mm|Usage=FLASHONLY|Rotation=270.000|XOffset=0mm|YOffset=0mm|HoleType=Round|Shape=RoundedRectangle|*
%AMROUNDEDRECTD11*
21,1,0.300,0.850,0,0,270.0*
21,1,0.150,1.000,0,0,270.0*
1,1,0.150,-0.425,-0.075*
1,1,0.150,-0.425,0.075*
1,1,0.150,0.425,0.075*
1,1,0.150,0.425,-0.075*
%
%ADD11ROUNDEDRECTD11*%
G04:AMPARAMS|DCode=12|XSize=0.6mm|YSize=1mm|CornerRadius=0.15mm|HoleSize=0mm|Usage=FLASHONLY|Rotation=270.000|XOffset=0mm|YOffset=0mm|HoleType=Round|Shape=RoundedRectangle|*
%AMROUNDEDRECTD12*
21,1,0.600,0.700,0,0,270.0*
21,1,0.300,1.000,0,0,270.0*
1,1,0.300,-0.350,-0.150*
1,1,0.300,-0.350,0.150*
1,1,0.300,0.350,0.150*
1,1,0.300,0.350,-0.150*
%
%ADD12ROUNDEDRECTD12*%
G04:AMPARAMS|DCode=13|XSize=0.8mm|YSize=0.8mm|CornerRadius=0.2mm|HoleSize=0mm|Usage=FLASHONLY|Rotation=180.000|XOffset=0mm|YOffset=0mm|HoleType=Round|Shape=RoundedRectangle|*
%AMROUNDEDRECTD13*
21,1,0.800,0.400,0,0,180.0*
21,1,0.400,0.800,0,0,180.0*
1,1,0.400,-0.200,0.200*
1,1,0.400,0.200,0.200*
1,1,0.400,0.200,-0.200*
1,1,0.400,-0.200,-0.200*
%
%ADD13ROUNDEDRECTD13*%
%ADD14R,0.800X0.800*%
%ADD15R,3.200X2.200*%
%ADD16O,1.000X2.200*%
%ADD17O,1.500X3.000*%
%ADD18O,1.600X0.300*%
%ADD19O,0.300X1.600*%
%ADD22C,0.700*%
%ADD23O,2.000X1.000*%
%ADD24O,1.800X1.000*%
%ADD25C,4.000*%
%ADD26O,1.600X2.200*%
%ADD27O,2.000X2.400*%
G04:AMPARAMS|DCode=28|XSize=0.9mm|YSize=1.6mm|CornerRadius=0mm|HoleSize=0mm|Usage=FLASHONLY|Rotation=0.000|XOffset=0mm|YOffset=0mm|HoleType=Round|Shape=Octagon|*
%AMOCTAGOND28*
4,1,8,-0.225,0.800,0.225,0.800,0.450,0.575,0.450,-0.575,0.225,-0.800,-0.225,-0.800,-0.450,-0.575,-0.450,0.575,-0.225,0.800,0.0*
%
%ADD28OCTAGOND28*%

%ADD29O,0.900X1.600*%
%ADD30C,1.000*%
D10*
X34400Y95400D02*
D03*
X33000D02*
D03*
X29450Y82450D02*
D03*
X28050D02*
D03*
X29450Y95400D02*
D03*
X28050D02*
D03*
X34475Y82450D02*
D03*
X33075D02*
D03*
X43650Y88975D02*
D03*
X45050D02*
D03*
X49150Y85825D02*
D03*
X50550D02*
D03*
X49150Y97025D02*
D03*
X50550D02*
D03*
X57475Y97600D02*
D03*
X58875D02*
D03*
X73200Y92100D02*
D03*
X71800D02*
D03*
X73200Y93850D02*
D03*
X71800D02*
D03*
X61875Y97600D02*
D03*
X60475D02*
D03*
D11*
X32825Y90700D02*
D03*
Y90200D02*
D03*
Y89700D02*
D03*
Y87200D02*
D03*
Y87700D02*
D03*
Y88200D02*
D03*
Y89200D02*
D03*
Y88700D02*
D03*
D12*
Y86550D02*
D03*
Y91350D02*
D03*
Y85750D02*
D03*
Y92150D02*
D03*
D13*
X36125Y95400D02*
D03*
X38575Y92425D02*
D03*
Y93825D02*
D03*
X40250Y92450D02*
D03*
Y93850D02*
D03*
X49875Y93175D02*
D03*
Y91775D02*
D03*
X49884Y88228D02*
D03*
Y89628D02*
D03*
X75050Y80900D02*
D03*
Y82300D02*
D03*
X60625Y80900D02*
D03*
Y82300D02*
D03*
X66575Y80900D02*
D03*
Y82300D02*
D03*
X68375Y80900D02*
D03*
Y82300D02*
D03*
D14*
X37725Y95400D02*
D03*
D15*
X44675Y91250D02*
D03*
D16*
X42375Y97450D02*
D03*
X44675D02*
D03*
X46975D02*
D03*
D17*
X53875Y97025D02*
D03*
Y85825D02*
D03*
D18*
X57625Y93550D02*
D03*
Y93050D02*
D03*
Y92550D02*
D03*
Y92050D02*
D03*
Y91550D02*
D03*
Y91050D02*
D03*
Y90550D02*
D03*
Y90050D02*
D03*
Y89550D02*
D03*
Y89050D02*
D03*
Y88550D02*
D03*
Y88050D02*
D03*
Y87550D02*
D03*
Y87050D02*
D03*
Y86550D02*
D03*
Y86050D02*
D03*
X69025D02*
D03*
Y86550D02*
D03*
Y87050D02*
D03*
Y87550D02*
D03*
Y88050D02*
D03*
Y88550D02*
D03*
Y89050D02*
D03*
Y89550D02*
D03*
Y90050D02*
D03*
Y90550D02*
D03*
Y91050D02*
D03*
Y91550D02*
D03*
Y92050D02*
D03*
Y92550D02*
D03*
Y93050D02*
D03*
Y93550D02*
D03*
D19*
X59575Y84100D02*
D03*
X60075D02*
D03*
X60575D02*
D03*
X61075D02*
D03*
X61575D02*
D03*
X62075D02*
D03*
X62575D02*
D03*
X63075D02*
D03*
X63575D02*
D03*
X64075D02*
D03*
X64575D02*
D03*
X65075D02*
D03*
X65575D02*
D03*
X66075D02*
D03*
X66575D02*
D03*
X67075D02*
D03*
Y95500D02*
D03*
X66575D02*
D03*
X66075D02*
D03*
X65575D02*
D03*
X65075D02*
D03*
X64575D02*
D03*
X64075D02*
D03*
X63575D02*
D03*
X63075D02*
D03*
X62575D02*
D03*
X62075D02*
D03*
X61575D02*
D03*
X61075D02*
D03*
X60575D02*
D03*
X60075D02*
D03*
X59575D02*
D03*
D22*
X31705Y91840D02*
D03*
Y86060D02*
D03*
D23*
X32205Y84650D02*
D03*
Y93250D02*
D03*
D24*
X28025Y84650D02*
D03*
Y93250D02*
D03*
D25*
X38800Y89050D02*
D03*
X80300D02*
D03*
D26*
X41975Y82000D02*
D03*
X37475D02*
D03*
X82876Y81941D02*
D03*
X78376D02*
D03*
D27*
X36225Y84500D02*
D03*
X43225D02*
D03*
X77126Y84441D02*
D03*
X84126D02*
D03*
D28*
X77700Y94300D02*
D03*
D29*
X78950D02*
D03*
X80200D02*
D03*
X81450D02*
D03*
X82700D02*
D03*
X83950D02*
D03*
D30*
X67240Y97725D02*
D03*
X68510D02*
D03*
X69780D02*
D03*
X65970D02*
D03*
M02*
